# This file uses centimeters as units for non-parametric coordinates.

mtllib WallBarrier_LP.mtl
g default
v -0.125000 0.000000 1.017428
v 0.125000 0.000000 1.017428
v -0.125000 2.344006 0.821612
v 0.125000 2.344006 0.821612
v -0.125000 2.344006 -0.821612
v 0.125000 2.344006 -0.821612
v -0.125000 0.000000 -1.017428
v 0.125000 0.000000 -1.017428
v -2.125000 0.000000 1.017428
v -1.875000 0.000000 1.017428
v -2.125000 2.344006 0.821612
v -1.875000 2.344006 0.821612
v -2.125000 2.344006 -0.821612
v -1.875000 2.344006 -0.821612
v -2.125000 0.000000 -1.017428
v -1.875000 0.000000 -1.017428
v 0.875000 0.000000 1.017428
v 1.125000 0.000000 1.017428
v 0.875000 2.344006 0.821612
v 1.125000 2.344006 0.821612
v 0.875000 2.344006 -0.821612
v 1.125000 2.344006 -0.821612
v 0.875000 0.000000 -1.017428
v 1.125000 0.000000 -1.017428
v -2.000000 1.000000 0.662928
v 2.000000 1.000000 0.662928
v -2.000000 1.215358 0.662928
v 2.000000 1.215358 0.662928
v -2.000000 1.215358 -0.662928
v 2.000000 1.215358 -0.662928
v -2.000000 1.000000 -0.662928
v 2.000000 1.000000 -0.662928
v -0.855704 2.699687 1.340639
v 0.855704 2.699687 1.340639
v -0.855704 6.697306 1.340639
v 0.855704 6.697306 1.340639
v -0.855704 6.697306 -1.340639
v 0.855704 6.697306 -1.340639
v -0.855704 2.699687 -1.340639
v 0.855704 2.699687 -1.340639
v -2.000000 0.000000 0.662928
v 2.000000 0.000000 0.662928
v -2.000000 0.112639 0.662928
v 2.000000 0.112639 0.662928
v -2.000000 0.112639 -0.662928
v 2.000000 0.112639 -0.662928
v -2.000000 0.000000 -0.662928
v 2.000000 0.000000 -0.662928
v -2.000000 2.000000 0.662928
v 2.000000 2.000000 0.662928
v -2.000000 6.000000 0.662928
v 2.000000 6.000000 0.662928
v -2.000000 6.000000 -0.662928
v 2.000000 6.000000 -0.662928
v -2.000000 2.000000 -0.662928
v 2.000000 2.000000 -0.662928
v -1.125000 0.000000 1.017428
v -0.875000 0.000000 1.017428
v -1.125000 2.344006 0.821612
v -0.875000 2.344006 0.821612
v -1.125000 2.344006 -0.821612
v -0.875000 2.344006 -0.821612
v -1.125000 0.000000 -1.017428
v -0.875000 0.000000 -1.017428
vt 0.375000 0.000000
vt 0.625000 0.000000
vt 0.375000 0.250000
vt 0.625000 0.250000
vt 0.375000 0.500000
vt 0.625000 0.500000
vt 0.375000 0.750000
vt 0.625000 0.750000
vt 0.875000 0.000000
vt 0.875000 0.250000
vt 0.125000 0.000000
vt 0.125000 0.250000
vt 0.375000 0.000000
vt 0.625000 0.000000
vt 0.625000 0.250000
vt 0.375000 0.250000
vt 0.625000 0.500000
vt 0.375000 0.500000
vt 0.625000 0.750000
vt 0.375000 0.750000
vt 0.875000 0.000000
vt 0.875000 0.250000
vt 0.125000 0.000000
vt 0.125000 0.250000
vt 0.375000 0.000000
vt 0.625000 0.000000
vt 0.625000 0.250000
vt 0.375000 0.250000
vt 0.625000 0.500000
vt 0.375000 0.500000
vt 0.625000 0.750000
vt 0.375000 0.750000
vt 0.875000 0.000000
vt 0.875000 0.250000
vt 0.125000 0.000000
vt 0.125000 0.250000
vt 0.375000 0.000000
vt 0.625000 0.000000
vt 0.625000 0.250000
vt 0.375000 0.250000
vt 0.625000 0.500000
vt 0.375000 0.500000
vt 0.625000 0.750000
vt 0.375000 0.750000
vt 0.625000 1.000000
vt 0.375000 1.000000
vt 0.875000 0.000000
vt 0.875000 0.250000
vt 0.125000 0.000000
vt 0.125000 0.250000
vt 0.375000 0.000000
vt 0.625000 0.000000
vt 0.625000 0.250000
vt 0.375000 0.250000
vt 0.625000 0.500000
vt 0.375000 0.500000
vt 0.625000 0.750000
vt 0.375000 0.750000
vt 0.625000 1.000000
vt 0.375000 1.000000
vt 0.875000 0.000000
vt 0.875000 0.250000
vt 0.125000 0.000000
vt 0.125000 0.250000
vt 0.375000 0.000000
vt 0.625000 0.000000
vt 0.625000 0.250000
vt 0.375000 0.250000
vt 0.625000 0.500000
vt 0.375000 0.500000
vt 0.625000 0.750000
vt 0.375000 0.750000
vt 0.875000 0.000000
vt 0.875000 0.250000
vt 0.125000 0.000000
vt 0.125000 0.250000
vt 0.375000 0.000000
vt 0.625000 0.000000
vt 0.625000 0.250000
vt 0.375000 0.250000
vt 0.625000 0.500000
vt 0.375000 0.500000
vt 0.625000 0.750000
vt 0.375000 0.750000
vt 0.625000 1.000000
vt 0.375000 1.000000
vt 0.875000 0.000000
vt 0.875000 0.250000
vt 0.125000 0.000000
vt 0.125000 0.250000
vt 0.375000 0.000000
vt 0.625000 0.000000
vt 0.625000 0.250000
vt 0.375000 0.250000
vt 0.625000 0.500000
vt 0.375000 0.500000
vt 0.625000 0.750000
vt 0.375000 0.750000
vt 0.875000 0.000000
vt 0.875000 0.250000
vt 0.125000 0.000000
vt 0.125000 0.250000
vn 0.000000 0.083249 0.996529
vn 0.000000 0.083249 0.996529
vn 0.000000 0.083249 0.996529
vn 0.000000 0.083249 0.996529
vn 0.000000 1.000000 0.000000
vn 0.000000 1.000000 0.000000
vn 0.000000 1.000000 0.000000
vn 0.000000 1.000000 0.000000
vn 0.000000 0.083249 -0.996529
vn 0.000000 0.083249 -0.996529
vn 0.000000 0.083249 -0.996529
vn 0.000000 0.083249 -0.996529
vn 1.000000 -0.000000 0.000000
vn 1.000000 -0.000000 0.000000
vn 1.000000 -0.000000 0.000000
vn 1.000000 -0.000000 0.000000
vn -1.000000 -0.000000 0.000000
vn -1.000000 -0.000000 0.000000
vn -1.000000 -0.000000 0.000000
vn -1.000000 -0.000000 0.000000
vn 0.000000 0.083249 0.996529
vn 0.000000 0.083249 0.996529
vn 0.000000 0.083249 0.996529
vn 0.000000 0.083249 0.996529
vn 0.000000 1.000000 0.000000
vn 0.000000 1.000000 0.000000
vn 0.000000 1.000000 0.000000
vn 0.000000 1.000000 0.000000
vn 0.000000 0.083249 -0.996529
vn 0.000000 0.083249 -0.996529
vn 0.000000 0.083249 -0.996529
vn 0.000000 0.083249 -0.996529
vn 1.000000 -0.000000 0.000000
vn 1.000000 -0.000000 0.000000
vn 1.000000 -0.000000 0.000000
vn 1.000000 -0.000000 0.000000
vn -1.000000 -0.000000 0.000000
vn -1.000000 -0.000000 0.000000
vn -1.000000 -0.000000 0.000000
vn -1.000000 -0.000000 0.000000
vn 0.000000 0.083249 0.996529
vn 0.000000 0.083249 0.996529
vn 0.000000 0.083249 0.996529
vn 0.000000 0.083249 0.996529
vn 0.000000 1.000000 0.000000
vn 0.000000 1.000000 0.000000
vn 0.000000 1.000000 0.000000
vn 0.000000 1.000000 0.000000
vn 0.000000 0.083249 -0.996529
vn 0.000000 0.083249 -0.996529
vn 0.000000 0.083249 -0.996529
vn 0.000000 0.083249 -0.996529
vn 1.000000 -0.000000 0.000000
vn 1.000000 -0.000000 0.000000
vn 1.000000 -0.000000 0.000000
vn 1.000000 -0.000000 0.000000
vn -1.000000 -0.000000 0.000000
vn -1.000000 -0.000000 0.000000
vn -1.000000 -0.000000 0.000000
vn -1.000000 -0.000000 0.000000
vn 0.000000 0.000000 1.000000
vn 0.000000 0.000000 1.000000
vn 0.000000 0.000000 1.000000
vn 0.000000 0.000000 1.000000
vn 0.000000 1.000000 0.000000
vn 0.000000 1.000000 0.000000
vn 0.000000 1.000000 0.000000
vn 0.000000 1.000000 0.000000
vn 0.000000 0.000000 -1.000000
vn 0.000000 0.000000 -1.000000
vn 0.000000 0.000000 -1.000000
vn 0.000000 0.000000 -1.000000
vn 0.000000 -1.000000 0.000000
vn 0.000000 -1.000000 0.000000
vn 0.000000 -1.000000 0.000000
vn 0.000000 -1.000000 0.000000
vn 1.000000 0.000000 0.000000
vn 1.000000 0.000000 0.000000
vn 1.000000 0.000000 0.000000
vn 1.000000 0.000000 0.000000
vn -1.000000 0.000000 0.000000
vn -1.000000 0.000000 0.000000
vn -1.000000 0.000000 0.000000
vn -1.000000 0.000000 0.000000
vn 0.000000 0.000000 1.000000
vn 0.000000 0.000000 1.000000
vn 0.000000 0.000000 1.000000
vn 0.000000 0.000000 1.000000
vn 0.000000 1.000000 0.000000
vn 0.000000 1.000000 0.000000
vn 0.000000 1.000000 0.000000
vn 0.000000 1.000000 0.000000
vn 0.000000 0.000000 -1.000000
vn 0.000000 0.000000 -1.000000
vn 0.000000 0.000000 -1.000000
vn 0.000000 0.000000 -1.000000
vn 0.000000 -1.000000 0.000000
vn 0.000000 -1.000000 0.000000
vn 0.000000 -1.000000 0.000000
vn 0.000000 -1.000000 0.000000
vn 1.000000 0.000000 0.000000
vn 1.000000 0.000000 0.000000
vn 1.000000 0.000000 0.000000
vn 1.000000 0.000000 0.000000
vn -1.000000 0.000000 0.000000
vn -1.000000 0.000000 0.000000
vn -1.000000 0.000000 0.000000
vn -1.000000 0.000000 0.000000
vn 0.000000 0.000000 1.000000
vn 0.000000 0.000000 1.000000
vn 0.000000 0.000000 1.000000
vn 0.000000 0.000000 1.000000
vn 0.000000 1.000000 0.000000
vn 0.000000 1.000000 0.000000
vn 0.000000 1.000000 0.000000
vn 0.000000 1.000000 0.000000
vn 0.000000 0.000000 -1.000000
vn 0.000000 0.000000 -1.000000
vn 0.000000 0.000000 -1.000000
vn 0.000000 0.000000 -1.000000
vn 1.000000 0.000000 0.000000
vn 1.000000 0.000000 0.000000
vn 1.000000 0.000000 0.000000
vn 1.000000 0.000000 0.000000
vn -1.000000 0.000000 0.000000
vn -1.000000 0.000000 0.000000
vn -1.000000 0.000000 0.000000
vn -1.000000 0.000000 0.000000
vn 0.000000 0.000000 1.000000
vn 0.000000 0.000000 1.000000
vn 0.000000 0.000000 1.000000
vn 0.000000 0.000000 1.000000
vn 0.000000 1.000000 0.000000
vn 0.000000 1.000000 0.000000
vn 0.000000 1.000000 0.000000
vn 0.000000 1.000000 0.000000
vn 0.000000 0.000000 -1.000000
vn 0.000000 0.000000 -1.000000
vn 0.000000 0.000000 -1.000000
vn 0.000000 0.000000 -1.000000
vn 0.000000 -1.000000 0.000000
vn 0.000000 -1.000000 0.000000
vn 0.000000 -1.000000 0.000000
vn 0.000000 -1.000000 0.000000
vn 1.000000 0.000000 0.000000
vn 1.000000 0.000000 0.000000
vn 1.000000 0.000000 0.000000
vn 1.000000 0.000000 0.000000
vn -1.000000 0.000000 0.000000
vn -1.000000 0.000000 0.000000
vn -1.000000 0.000000 0.000000
vn -1.000000 0.000000 0.000000
vn 0.000000 0.083249 0.996529
vn 0.000000 0.083249 0.996529
vn 0.000000 0.083249 0.996529
vn 0.000000 0.083249 0.996529
vn 0.000000 1.000000 0.000000
vn 0.000000 1.000000 0.000000
vn 0.000000 1.000000 0.000000
vn 0.000000 1.000000 0.000000
vn 0.000000 0.083249 -0.996529
vn 0.000000 0.083249 -0.996529
vn 0.000000 0.083249 -0.996529
vn 0.000000 0.083249 -0.996529
vn 1.000000 -0.000000 0.000000
vn 1.000000 -0.000000 0.000000
vn 1.000000 -0.000000 0.000000
vn 1.000000 -0.000000 0.000000
vn -1.000000 -0.000000 0.000000
vn -1.000000 -0.000000 0.000000
vn -1.000000 -0.000000 0.000000
vn -1.000000 -0.000000 0.000000
s off
g WallBarrier_LP
usemtl initialShadingGroup
f 1/1/1 2/2/2 4/4/3 3/3/4
f 3/3/5 4/4/6 6/6/7 5/5/8
f 5/5/9 6/6/10 8/8/11 7/7/12
f 2/2/13 8/9/14 6/10/15 4/4/16
f 7/11/17 1/1/18 3/3/19 5/12/20
f 9/13/21 10/14/22 12/15/23 11/16/24
f 11/16/25 12/15/26 14/17/27 13/18/28
f 13/18/29 14/17/30 16/19/31 15/20/32
f 10/14/33 16/21/34 14/22/35 12/15/36
f 15/23/37 9/13/38 11/16/39 13/24/40
f 17/25/41 18/26/42 20/27/43 19/28/44
f 19/28/45 20/27/46 22/29/47 21/30/48
f 21/30/49 22/29/50 24/31/51 23/32/52
f 18/26/53 24/33/54 22/34/55 20/27/56
f 23/35/57 17/25/58 19/28/59 21/36/60
f 25/37/61 26/38/62 28/39/63 27/40/64
f 27/40/65 28/39/66 30/41/67 29/42/68
f 29/42/69 30/41/70 32/43/71 31/44/72
f 31/44/73 32/43/74 26/45/75 25/46/76
f 26/38/77 32/47/78 30/48/79 28/39/80
f 31/49/81 25/37/82 27/40/83 29/50/84
f 33/51/85 34/52/86 36/53/87 35/54/88
f 35/54/89 36/53/90 38/55/91 37/56/92
f 37/56/93 38/55/94 40/57/95 39/58/96
f 39/58/97 40/57/98 34/59/99 33/60/100
f 34/52/101 40/61/102 38/62/103 36/53/104
f 39/63/105 33/51/106 35/54/107 37/64/108
f 41/65/109 42/66/110 44/67/111 43/68/112
f 43/68/113 44/67/114 46/69/115 45/70/116
f 45/70/117 46/69/118 48/71/119 47/72/120
f 42/66/121 48/73/122 46/74/123 44/67/124
f 47/75/125 41/65/126 43/68/127 45/76/128
f 49/77/129 50/78/130 52/79/131 51/80/132
f 51/80/133 52/79/134 54/81/135 53/82/136
f 53/82/137 54/81/138 56/83/139 55/84/140
f 55/84/141 56/83/142 50/85/143 49/86/144
f 50/78/145 56/87/146 54/88/147 52/79/148
f 55/89/149 49/77/150 51/80/151 53/90/152
f 57/91/153 58/92/154 60/93/155 59/94/156
f 59/94/157 60/93/158 62/95/159 61/96/160
f 61/96/161 62/95/162 64/97/163 63/98/164
f 58/92/165 64/99/166 62/100/167 60/93/168
f 63/101/169 57/91/170 59/94/171 61/102/172
g default
v -1.933737 0.024268 0.500000
v 1.933737 0.024268 0.500000
v -1.933737 3.625534 0.500000
v 1.933737 3.625534 0.500000
v -1.933737 3.625534 -0.500000
v 1.933737 3.625534 -0.500000
v -1.933737 0.024268 -0.500000
v 1.933737 0.024268 -0.500000
v -1.077280 2.550653 0.839045
v 1.077280 2.550653 0.839045
v -1.077280 6.245182 0.839045
v 1.077280 6.245182 0.839045
v -1.077280 6.245182 -0.839045
v 1.077280 6.245182 -0.839045
v -1.077280 2.550653 -0.839045
v 1.077280 2.550653 -0.839045
vt 0.375000 0.000000
vt 0.625000 0.000000
vt 0.375000 0.250000
vt 0.625000 0.250000
vt 0.375000 0.500000
vt 0.625000 0.500000
vt 0.375000 0.750000
vt 0.625000 0.750000
vt 0.875000 0.000000
vt 0.875000 0.250000
vt 0.125000 0.000000
vt 0.125000 0.250000
vt 0.375000 0.000000
vt 0.625000 0.000000
vt 0.625000 0.250000
vt 0.375000 0.250000
vt 0.625000 0.500000
vt 0.375000 0.500000
vt 0.625000 0.750000
vt 0.375000 0.750000
vt 0.625000 1.000000
vt 0.375000 1.000000
vt 0.875000 0.000000
vt 0.875000 0.250000
vt 0.125000 0.000000
vt 0.125000 0.250000
vn 0.000000 0.000000 1.000000
vn 0.000000 0.000000 1.000000
vn 0.000000 0.000000 1.000000
vn 0.000000 0.000000 1.000000
vn 0.000000 0.000000 -1.000000
vn 0.000000 0.000000 -1.000000
vn 0.000000 0.000000 -1.000000
vn 0.000000 0.000000 -1.000000
vn 1.000000 0.000000 0.000000
vn 1.000000 0.000000 0.000000
vn 1.000000 0.000000 0.000000
vn 1.000000 0.000000 0.000000
vn -1.000000 0.000000 0.000000
vn -1.000000 0.000000 0.000000
vn -1.000000 0.000000 0.000000
vn -1.000000 0.000000 0.000000
vn 0.000000 0.000000 1.000000
vn 0.000000 0.000000 1.000000
vn 0.000000 0.000000 1.000000
vn 0.000000 0.000000 1.000000
vn 0.000000 1.000000 0.000000
vn 0.000000 1.000000 0.000000
vn 0.000000 1.000000 0.000000
vn 0.000000 1.000000 0.000000
vn 0.000000 0.000000 -1.000000
vn 0.000000 0.000000 -1.000000
vn 0.000000 0.000000 -1.000000
vn 0.000000 0.000000 -1.000000
vn 0.000000 -1.000000 0.000000
vn 0.000000 -1.000000 0.000000
vn 0.000000 -1.000000 0.000000
vn 0.000000 -1.000000 0.000000
vn 1.000000 0.000000 0.000000
vn 1.000000 0.000000 0.000000
vn 1.000000 0.000000 0.000000
vn 1.000000 0.000000 0.000000
vn -1.000000 0.000000 0.000000
vn -1.000000 0.000000 0.000000
vn -1.000000 0.000000 0.000000
vn -1.000000 0.000000 0.000000
s off
g WallNeon_LP
usemtl lambert2SG
f 65/103/173 66/104/174 68/106/175 67/105/176
f 69/107/177 70/108/178 72/110/179 71/109/180
f 66/104/181 72/111/182 70/112/183 68/106/184
f 71/113/185 65/103/186 67/105/187 69/114/188
f 73/115/189 74/116/190 76/117/191 75/118/192
f 75/118/193 76/117/194 78/119/195 77/120/196
f 77/120/197 78/119/198 80/121/199 79/122/200
f 79/122/201 80/121/202 74/123/203 73/124/204
f 74/116/205 80/125/206 78/126/207 76/117/208
f 79/127/209 73/115/210 75/118/211 77/128/212
