# This file uses centimeters as units for non-parametric coordinates.

mtllib GeoGem_Cage.mtl
g default
v -0.931400 -0.931400 0.220681
v 0.931400 -0.931400 0.220681
v -0.931400 0.931400 0.220681
v 0.931400 0.931400 0.220681
v -0.931400 0.931400 -0.220681
v 0.931400 0.931400 -0.220681
v -0.931400 -0.931400 -0.220681
v 0.931400 -0.931400 -0.220681
v -1.234489 1.234489 0.220681
v 1.234489 1.234489 0.220681
v 1.234489 1.234489 -0.220681
v -1.234489 1.234489 -0.220681
v -1.234489 -1.234489 -0.220681
v 1.234489 -1.234489 -0.220681
v 1.234489 -1.234489 0.220681
v -1.234489 -1.234489 0.220681
v -0.931400 -0.220681 -0.931400
v 0.931400 -0.220681 -0.931400
v -0.931400 -0.220681 0.931400
v 0.931400 -0.220681 0.931400
v -0.931400 0.220681 0.931400
v 0.931400 0.220681 0.931400
v -0.931400 0.220681 -0.931400
v 0.931400 0.220681 -0.931400
v -1.234489 -0.220681 1.234489
v 1.234489 -0.220681 1.234489
v 1.234489 0.220681 1.234489
v -1.234489 0.220681 1.234489
v -1.234489 0.220681 -1.234489
v 1.234489 0.220681 -1.234489
v 1.234489 -0.220681 -1.234489
v -1.234489 -0.220681 -1.234489
v 0.220681 -0.931400 0.931400
v 0.220681 -0.931400 -0.931400
v 0.220681 0.931400 0.931400
v 0.220681 0.931400 -0.931400
v -0.220681 0.931400 0.931400
v -0.220681 0.931400 -0.931400
v -0.220681 -0.931400 0.931400
v -0.220681 -0.931400 -0.931400
v 0.220681 1.234489 1.234489
v 0.220681 1.234489 -1.234489
v -0.220681 1.234489 -1.234489
v -0.220681 1.234489 1.234489
v -0.220681 -1.234489 1.234489
v -0.220681 -1.234489 -1.234489
v 0.220681 -1.234489 -1.234489
v 0.220681 -1.234489 1.234489
vt 0.375000 0.000000
vt 0.625000 0.000000
vt 0.375000 0.250000
vt 0.625000 0.250000
vt 0.375000 0.500000
vt 0.625000 0.500000
vt 0.375000 0.750000
vt 0.625000 0.750000
vt 0.375000 1.000000
vt 0.625000 1.000000
vt 0.875000 0.000000
vt 0.875000 0.250000
vt 0.125000 0.000000
vt 0.125000 0.250000
vt 0.375000 0.250000
vt 0.625000 0.250000
vt 0.625000 0.500000
vt 0.375000 0.500000
vt 0.375000 0.750000
vt 0.625000 0.750000
vt 0.625000 1.000000
vt 0.375000 1.000000
vt 0.625000 0.000000
vt 0.875000 0.000000
vt 0.875000 0.250000
vt 0.125000 0.000000
vt 0.375000 0.000000
vt 0.125000 0.250000
vt 0.375000 0.250000
vt 0.625000 0.250000
vt 0.625000 0.500000
vt 0.375000 0.500000
vt 0.375000 0.750000
vt 0.625000 0.750000
vt 0.625000 1.000000
vt 0.375000 1.000000
vt 0.875000 0.000000
vt 0.875000 0.250000
vt 0.625000 0.000000
vt 0.375000 0.000000
vt 0.125000 0.250000
vt 0.125000 0.000000
vt 0.375000 0.250000
vt 0.625000 0.250000
vt 0.625000 0.500000
vt 0.375000 0.500000
vt 0.375000 0.750000
vt 0.625000 0.750000
vt 0.625000 1.000000
vt 0.375000 1.000000
vt 0.625000 0.000000
vt 0.875000 0.000000
vt 0.875000 0.250000
vt 0.125000 0.000000
vt 0.375000 0.000000
vt 0.125000 0.250000
vt 0.375000 0.250000
vt 0.375000 0.500000
vt 0.625000 0.500000
vt 0.625000 0.250000
vt 0.375000 0.750000
vt 0.375000 1.000000
vt 0.625000 1.000000
vt 0.625000 0.750000
vt 0.625000 0.000000
vt 0.875000 0.250000
vt 0.875000 0.000000
vt 0.125000 0.000000
vt 0.125000 0.250000
vt 0.375000 0.000000
vt 0.375000 0.250000
vt 0.625000 0.250000
vt 0.625000 0.500000
vt 0.375000 0.500000
vt 0.375000 0.750000
vt 0.625000 0.750000
vt 0.625000 1.000000
vt 0.375000 1.000000
vt 0.875000 0.000000
vt 0.875000 0.250000
vt 0.625000 0.000000
vt 0.375000 0.000000
vt 0.125000 0.250000
vt 0.125000 0.000000
vt 0.375000 0.250000
vt 0.625000 0.250000
vt 0.625000 0.500000
vt 0.375000 0.500000
vt 0.375000 0.750000
vt 0.625000 0.750000
vt 0.625000 1.000000
vt 0.375000 1.000000
vt 0.625000 0.000000
vt 0.875000 0.000000
vt 0.875000 0.250000
vt 0.125000 0.000000
vt 0.375000 0.000000
vt 0.125000 0.250000
vt 0.375000 0.250000
vt 0.375000 0.500000
vt 0.625000 0.500000
vt 0.625000 0.250000
vt 0.375000 0.750000
vt 0.375000 1.000000
vt 0.625000 1.000000
vt 0.625000 0.750000
vt 0.625000 0.000000
vt 0.875000 0.250000
vt 0.875000 0.000000
vt 0.125000 0.000000
vt 0.125000 0.250000
vt 0.375000 0.000000
vt 0.375000 0.250000
vt 0.625000 0.250000
vt 0.625000 0.500000
vt 0.375000 0.500000
vt 0.375000 0.750000
vt 0.625000 0.750000
vt 0.625000 1.000000
vt 0.375000 1.000000
vt 0.875000 0.000000
vt 0.875000 0.250000
vt 0.625000 0.000000
vt 0.375000 0.000000
vt 0.125000 0.250000
vt 0.125000 0.000000
vn 0.000000 1.000000 0.000000
vn 0.000000 1.000000 0.000000
vn 0.000000 1.000000 0.000000
vn 0.000000 1.000000 0.000000
vn 0.000000 -1.000000 0.000000
vn 0.000000 -1.000000 0.000000
vn 0.000000 -1.000000 0.000000
vn 0.000000 -1.000000 0.000000
vn 1.000000 0.000000 0.000000
vn 1.000000 0.000000 0.000000
vn 1.000000 0.000000 0.000000
vn 1.000000 0.000000 0.000000
vn -1.000000 0.000000 0.000000
vn -1.000000 0.000000 0.000000
vn -1.000000 0.000000 0.000000
vn -1.000000 0.000000 0.000000
vn 0.000000 -1.000000 0.000000
vn 0.000000 -1.000000 0.000000
vn 0.000000 -1.000000 0.000000
vn 0.000000 -1.000000 0.000000
vn 0.000000 1.000000 0.000000
vn 0.000000 1.000000 0.000000
vn 0.000000 1.000000 0.000000
vn 0.000000 1.000000 0.000000
vn -1.000000 0.000000 0.000000
vn -1.000000 0.000000 0.000000
vn -1.000000 0.000000 0.000000
vn -1.000000 0.000000 0.000000
vn 1.000000 0.000000 0.000000
vn 1.000000 0.000000 0.000000
vn 1.000000 0.000000 0.000000
vn 1.000000 0.000000 0.000000
vn 0.000000 0.000000 1.000000
vn -0.000000 0.000000 1.000000
vn -0.000000 0.000000 1.000000
vn 0.000000 0.000000 1.000000
vn -0.000000 0.000000 -1.000000
vn 0.000000 0.000000 -1.000000
vn 0.000000 0.000000 -1.000000
vn -0.000000 0.000000 -1.000000
vn 0.000000 0.000000 -1.000000
vn -0.000000 0.000000 -1.000000
vn -0.000000 0.000000 -1.000000
vn 0.000000 0.000000 -1.000000
vn -0.000000 0.000000 1.000000
vn 0.000000 0.000000 1.000000
vn 0.000000 0.000000 1.000000
vn -0.000000 0.000000 1.000000
vn 0.000000 0.000000 1.000000
vn 0.000000 0.000000 1.000000
vn 0.000000 0.000000 1.000000
vn 0.000000 0.000000 1.000000
vn 0.000000 0.000000 -1.000000
vn 0.000000 0.000000 -1.000000
vn 0.000000 0.000000 -1.000000
vn 0.000000 0.000000 -1.000000
vn 1.000000 0.000000 0.000000
vn 1.000000 0.000000 0.000000
vn 1.000000 0.000000 0.000000
vn 1.000000 0.000000 0.000000
vn -1.000000 0.000000 0.000000
vn -1.000000 0.000000 0.000000
vn -1.000000 0.000000 0.000000
vn -1.000000 0.000000 0.000000
vn 0.000000 0.000000 -1.000000
vn 0.000000 0.000000 -1.000000
vn 0.000000 0.000000 -1.000000
vn 0.000000 0.000000 -1.000000
vn 0.000000 0.000000 1.000000
vn 0.000000 0.000000 1.000000
vn 0.000000 0.000000 1.000000
vn 0.000000 0.000000 1.000000
vn -1.000000 0.000000 0.000000
vn -1.000000 0.000000 0.000000
vn -1.000000 0.000000 0.000000
vn -1.000000 0.000000 0.000000
vn 1.000000 0.000000 0.000000
vn 1.000000 0.000000 0.000000
vn 1.000000 0.000000 0.000000
vn 1.000000 0.000000 0.000000
vn 0.000000 -1.000000 -0.000000
vn 0.000000 -1.000000 -0.000000
vn 0.000000 -1.000000 -0.000000
vn 0.000000 -1.000000 -0.000000
vn 0.000000 1.000000 -0.000000
vn 0.000000 1.000000 -0.000000
vn 0.000000 1.000000 -0.000000
vn 0.000000 1.000000 -0.000000
vn 0.000000 1.000000 0.000000
vn 0.000000 1.000000 0.000000
vn 0.000000 1.000000 0.000000
vn 0.000000 1.000000 0.000000
vn 0.000000 -1.000000 0.000000
vn 0.000000 -1.000000 0.000000
vn 0.000000 -1.000000 0.000000
vn 0.000000 -1.000000 0.000000
vn 0.000000 1.000000 0.000000
vn 0.000000 1.000000 0.000000
vn 0.000000 1.000000 0.000000
vn 0.000000 1.000000 0.000000
vn 0.000000 -1.000000 0.000000
vn 0.000000 -1.000000 0.000000
vn 0.000000 -1.000000 0.000000
vn 0.000000 -1.000000 0.000000
vn 0.000000 0.000000 -1.000000
vn 0.000000 0.000000 -1.000000
vn 0.000000 0.000000 -1.000000
vn 0.000000 0.000000 -1.000000
vn 0.000000 0.000000 1.000000
vn 0.000000 0.000000 1.000000
vn 0.000000 0.000000 1.000000
vn 0.000000 0.000000 1.000000
vn 0.000000 -1.000000 0.000000
vn 0.000000 -1.000000 0.000000
vn 0.000000 -1.000000 0.000000
vn 0.000000 -1.000000 0.000000
vn 0.000000 1.000000 0.000000
vn 0.000000 1.000000 0.000000
vn 0.000000 1.000000 0.000000
vn 0.000000 1.000000 0.000000
vn 0.000000 0.000000 1.000000
vn 0.000000 0.000000 1.000000
vn 0.000000 0.000000 1.000000
vn 0.000000 0.000000 1.000000
vn 0.000000 0.000000 -1.000000
vn 0.000000 0.000000 -1.000000
vn 0.000000 0.000000 -1.000000
vn 0.000000 0.000000 -1.000000
vn 1.000000 -0.000000 0.000000
vn 1.000000 -0.000000 0.000000
vn 1.000000 -0.000000 0.000000
vn 1.000000 -0.000000 0.000000
vn -1.000000 -0.000000 0.000000
vn -1.000000 -0.000000 0.000000
vn -1.000000 -0.000000 0.000000
vn -1.000000 -0.000000 0.000000
vn -1.000000 0.000000 0.000000
vn -1.000000 0.000000 0.000000
vn -1.000000 0.000000 0.000000
vn -1.000000 0.000000 0.000000
vn 1.000000 0.000000 0.000000
vn 1.000000 0.000000 0.000000
vn 1.000000 0.000000 0.000000
vn 1.000000 0.000000 0.000000
s off
g pCube4
usemtl initialShadingGroup
f 9/29/1 10/30/2 11/31/3 12/32/4
f 13/33/5 14/34/6 15/35/7 16/36/8
f 15/39/9 14/37/10 11/38/11 10/30/12
f 13/42/13 16/40/14 9/29/15 12/41/16
f 3/15/17 5/18/18 6/17/19 4/16/20
f 7/19/21 1/22/22 2/21/23 8/20/24
f 2/23/25 4/16/26 6/25/27 8/24/28
f 7/26/29 5/28/30 3/15/31 1/27/32
s 1
f 3/3/33 4/4/34 10/30/35 9/29/36
s 2
f 6/6/37 5/5/38 12/32/39 11/31/40
f 7/7/41 8/8/42 14/34/43 13/33/44
s 1
f 2/10/45 1/9/46 16/36/47 15/35/48
s 2
f 8/11/42 6/12/37 11/38/40 14/37/43
s 1
f 4/4/34 2/2/45 15/39/48 10/30/35
f 1/1/46 3/3/33 9/29/36 16/40/47
s 2
f 5/14/38 7/13/41 13/42/44 12/41/39
s off
f 25/43/49 26/44/50 27/45/51 28/46/52
f 29/47/53 30/48/54 31/49/55 32/50/56
f 31/51/57 30/52/58 27/53/59 26/44/60
f 29/54/61 32/55/62 25/43/63 28/56/64
f 19/57/65 21/58/66 22/59/67 20/60/68
f 23/61/69 17/62/70 18/63/71 24/64/72
f 18/65/73 20/60/74 22/66/75 24/67/76
f 23/68/77 21/69/78 19/57/79 17/70/80
s 3
f 19/71/81 20/72/82 26/44/83 25/43/84
s 4
f 22/73/85 21/74/86 28/46/87 27/45/88
f 23/75/89 24/76/90 30/48/91 29/47/92
s 3
f 18/77/93 17/78/94 32/50/95 31/49/96
s 4
f 24/79/90 22/80/85 27/53/88 30/52/91
s 3
f 20/72/82 18/81/93 31/51/96 26/44/83
f 17/82/94 19/71/81 25/43/84 32/55/95
s 4
f 21/83/86 23/84/89 29/54/92 28/56/87
s off
f 41/85/97 42/86/98 43/87/99 44/88/100
f 45/89/101 46/90/102 47/91/103 48/92/104
f 47/93/105 46/94/106 43/95/107 42/86/108
f 45/96/109 48/97/110 41/85/111 44/98/112
f 35/99/113 37/100/114 38/101/115 36/102/116
f 39/103/117 33/104/118 34/105/119 40/106/120
f 34/107/121 36/102/122 38/108/123 40/109/124
f 39/110/125 37/111/126 35/99/127 33/112/128
s 5
f 35/113/129 36/114/130 42/86/131 41/85/132
s 6
f 38/115/133 37/116/134 44/88/135 43/87/136
f 39/117/137 40/118/138 46/90/139 45/89/140
s 5
f 34/119/141 33/120/142 48/92/143 47/91/144
s 6
f 40/121/138 38/122/133 43/95/136 46/94/139
s 5
f 36/114/130 34/123/141 47/93/144 42/86/131
f 33/124/142 35/113/129 41/85/132 48/97/143
s 6
f 37/125/134 39/126/137 45/96/140 44/98/135
