# This file uses centimeters as units for non-parametric coordinates.

mtllib astroid_LP.mtl
g default
v -0.575378 -0.792368 0.570603
v -0.279910 -0.994526 0.606896
v 0.000000 -1.125666 0.884407
v 0.276020 -1.258796 0.570922
v 0.554415 -1.177916 0.557837
v -0.621661 -0.298658 0.602145
v -0.307702 -0.409137 0.694941
v 0.000890 -0.628914 0.747711
v 0.293946 -0.747244 0.718049
v 0.586697 -0.703096 0.659548
v -0.636462 0.261995 0.654882
v -0.310386 0.399071 0.764004
v 0.000687 0.102349 1.128210
v 0.345441 0.078741 0.920426
v 0.644312 -0.133357 0.863383
v -0.666963 0.666276 0.761438
v -0.253022 0.806347 0.745378
v 0.017516 0.753912 0.671605
v 0.298222 0.540449 0.648760
v 0.633970 0.405037 0.720462
v -0.494788 1.138982 0.741979
v -0.237111 1.233143 0.659719
v -0.025632 1.204560 0.509383
v 0.215259 0.955571 0.424946
v 0.538660 0.662808 0.475307
v -0.490737 1.604991 0.472673
v -0.243545 1.614893 0.332647
v -0.035930 1.425499 0.166168
v 0.330439 1.049755 0.196071
v 0.558478 0.786201 0.074844
v -0.514641 1.854828 0.142482
v -0.376149 1.739091 0.093452
v -0.034754 1.382645 -0.047210
v 0.250388 1.087892 -0.161847
v 0.607594 0.836031 -0.167957
v -0.538497 1.672448 -0.179576
v -0.244044 1.545204 -0.191305
v 0.016010 1.249012 -0.250217
v 0.298896 0.982899 -0.318254
v 0.650398 0.784956 -0.335134
v -0.541101 1.156610 -0.494253
v -0.254928 1.146314 -0.507485
v 0.034794 0.985572 -0.494558
v 0.336556 0.791903 -0.506313
v 0.656822 0.662168 -0.528268
v -0.589827 0.644868 -0.544520
v -0.287124 0.755331 -0.577980
v 0.017683 0.655177 -0.594975
v 0.329178 0.505746 -0.584995
v 0.755474 0.419526 -0.682259
v -0.578091 0.027144 -0.635564
v -0.294810 0.161812 -0.693578
v -0.004257 0.074612 -1.041703
v 0.259774 0.136744 -0.700279
v 0.617435 0.058619 -0.675249
v -0.540184 -0.240170 -0.646560
v -0.261482 -0.088325 -0.748017
v -0.029187 -0.027869 -0.818653
v 0.216429 -0.085956 -0.835090
v 0.555356 -0.257977 -0.740217
v -0.523255 -0.500800 -0.634401
v -0.263155 -0.338930 -0.727732
v -0.033704 -0.275698 -0.803093
v 0.211581 -0.361853 -0.805525
v 0.558746 -0.572246 -0.699183
v -0.589136 -0.617544 -0.362553
v -0.438074 -0.967816 -0.508958
v -0.070609 -0.475687 -0.525933
v 0.441514 -1.213269 -0.519556
v 0.579445 -1.030225 -0.393125
v -0.643516 -0.691303 -0.067921
v -0.378109 -0.774627 -0.138769
v -0.005592 -1.769867 -0.065151
v 0.282116 -1.455292 -0.120987
v 0.563966 -1.504419 -0.065928
v -0.630636 -0.737113 0.257924
v -0.319128 -0.941095 0.255280
v -0.002337 -1.388535 0.244212
v 0.277122 -1.677366 0.237223
v 0.555349 -1.497352 0.259689
v 0.643519 -0.507716 -0.414129
v 0.678138 -0.814689 -0.028199
v 0.638284 -0.853784 0.328646
v 0.755496 0.204643 -0.375549
v 1.133866 -0.125473 0.042292
v 0.774224 0.046341 0.501306
v 0.742283 0.619021 -0.343080
v 0.733952 0.687737 -0.113811
v 0.925861 0.724698 0.240829
v -0.635220 -0.276957 -0.365535
v -0.903797 -0.254167 -0.049103
v -0.723529 -0.249926 0.275151
v -0.678706 0.229310 -0.322669
v -0.741861 0.463445 0.038507
v -0.727192 0.393342 0.373456
v -0.810178 1.149220 -0.215068
v -0.620818 1.441214 0.120740
v -0.809211 1.153582 0.451350
vt 0.375000 0.000000
vt 0.437500 0.000000
vt 0.500000 0.000000
vt 0.562500 0.000000
vt 0.625000 0.000000
vt 0.375000 0.062500
vt 0.437500 0.062500
vt 0.500000 0.062500
vt 0.562500 0.062500
vt 0.625000 0.062500
vt 0.375000 0.125000
vt 0.437500 0.125000
vt 0.500000 0.125000
vt 0.562500 0.125000
vt 0.625000 0.125000
vt 0.375000 0.187500
vt 0.437500 0.187500
vt 0.500000 0.187500
vt 0.562500 0.187500
vt 0.625000 0.187500
vt 0.375000 0.250000
vt 0.437500 0.250000
vt 0.500000 0.250000
vt 0.562500 0.250000
vt 0.625000 0.250000
vt 0.375000 0.312500
vt 0.437500 0.312500
vt 0.500000 0.312500
vt 0.562500 0.312500
vt 0.625000 0.312500
vt 0.375000 0.375000
vt 0.437500 0.375000
vt 0.500000 0.375000
vt 0.562500 0.375000
vt 0.625000 0.375000
vt 0.375000 0.437500
vt 0.437500 0.437500
vt 0.500000 0.437500
vt 0.562500 0.437500
vt 0.625000 0.437500
vt 0.375000 0.500000
vt 0.437500 0.500000
vt 0.500000 0.500000
vt 0.562500 0.500000
vt 0.625000 0.500000
vt 0.375000 0.562500
vt 0.437500 0.562500
vt 0.500000 0.562500
vt 0.562500 0.562500
vt 0.625000 0.562500
vt 0.375000 0.625000
vt 0.437500 0.625000
vt 0.500000 0.625000
vt 0.562500 0.625000
vt 0.625000 0.625000
vt 0.375000 0.687500
vt 0.437500 0.687500
vt 0.500000 0.687500
vt 0.562500 0.687500
vt 0.625000 0.687500
vt 0.375000 0.750000
vt 0.437500 0.750000
vt 0.500000 0.750000
vt 0.562500 0.750000
vt 0.625000 0.750000
vt 0.375000 0.812500
vt 0.437500 0.812500
vt 0.500000 0.812500
vt 0.562500 0.812500
vt 0.625000 0.812500
vt 0.375000 0.875000
vt 0.437500 0.875000
vt 0.500000 0.875000
vt 0.562500 0.875000
vt 0.625000 0.875000
vt 0.375000 0.937500
vt 0.437500 0.937500
vt 0.500000 0.937500
vt 0.562500 0.937500
vt 0.625000 0.937500
vt 0.375000 1.000000
vt 0.437500 1.000000
vt 0.500000 1.000000
vt 0.562500 1.000000
vt 0.625000 1.000000
vt 0.875000 0.000000
vt 0.812500 0.000000
vt 0.750000 0.000000
vt 0.687500 0.000000
vt 0.875000 0.062500
vt 0.812500 0.062500
vt 0.750000 0.062500
vt 0.687500 0.062500
vt 0.875000 0.125000
vt 0.812500 0.125000
vt 0.750000 0.125000
vt 0.687500 0.125000
vt 0.875000 0.187500
vt 0.812500 0.187500
vt 0.750000 0.187500
vt 0.687500 0.187500
vt 0.875000 0.250000
vt 0.812500 0.250000
vt 0.750000 0.250000
vt 0.687500 0.250000
vt 0.125000 0.000000
vt 0.187500 0.000000
vt 0.250000 0.000000
vt 0.312500 0.000000
vt 0.125000 0.062500
vt 0.187500 0.062500
vt 0.250000 0.062500
vt 0.312500 0.062500
vt 0.125000 0.125000
vt 0.187500 0.125000
vt 0.250000 0.125000
vt 0.312500 0.125000
vt 0.125000 0.187500
vt 0.187500 0.187500
vt 0.250000 0.187500
vt 0.312500 0.187500
vt 0.125000 0.250000
vt 0.187500 0.250000
vt 0.250000 0.250000
vt 0.312500 0.250000
vn -0.266192 -0.124206 0.955884
vn -0.266192 -0.124206 0.955884
vn -0.266192 -0.124206 0.955884
vn -0.266192 -0.124206 0.955884
vn -0.476638 0.027654 0.878664
vn -0.476638 0.027654 0.878665
vn -0.476638 0.027654 0.878665
vn -0.476638 0.027654 0.878665
vn 0.510308 -0.018418 0.859794
vn 0.510308 -0.018418 0.859794
vn 0.510309 -0.018418 0.859794
vn 0.510308 -0.018418 0.859794
vn 0.173962 -0.249198 0.952700
vn 0.173962 -0.249198 0.952700
vn 0.173962 -0.249198 0.952700
vn 0.173962 -0.249198 0.952700
vn -0.296341 -0.088403 0.950982
vn -0.296341 -0.088403 0.950982
vn -0.296341 -0.088403 0.950982
vn -0.296341 -0.088403 0.950982
vn -0.660857 -0.211522 0.720088
vn -0.660857 -0.211522 0.720088
vn -0.660857 -0.211522 0.720088
vn -0.660857 -0.211522 0.720088
vn 0.258721 -0.346075 0.901829
vn 0.258721 -0.346075 0.901829
vn 0.258721 -0.346075 0.901829
vn 0.258721 -0.346075 0.901829
vn 0.105010 -0.285460 0.952620
vn 0.105010 -0.285460 0.952620
vn 0.105010 -0.285460 0.952620
vn 0.105010 -0.285460 0.952620
vn -0.085459 -0.104526 0.990844
vn -0.085459 -0.104526 0.990844
vn -0.085459 -0.104526 0.990844
vn -0.085459 -0.104526 0.990844
vn -0.196229 0.412922 0.889376
vn -0.196229 0.412922 0.889376
vn -0.196229 0.412922 0.889376
vn -0.196229 0.412922 0.889376
vn 0.459534 0.494966 0.737453
vn 0.459534 0.494966 0.737453
vn 0.459534 0.494966 0.737453
vn 0.459534 0.494966 0.737453
vn 0.190114 0.385278 0.903005
vn 0.190114 0.385278 0.903005
vn 0.190114 0.385278 0.903005
vn 0.190114 0.385278 0.903005
vn 0.112732 0.092048 0.989353
vn 0.112732 0.092048 0.989353
vn 0.112732 0.092048 0.989353
vn 0.112732 0.092048 0.989353
vn 0.442610 0.256481 0.859252
vn 0.442610 0.256481 0.859252
vn 0.442610 0.256482 0.859252
vn 0.442610 0.256481 0.859252
vn 0.518027 0.410148 0.750618
vn 0.518027 0.410148 0.750618
vn 0.518027 0.410148 0.750618
vn 0.518027 0.410148 0.750618
vn 0.246635 0.597248 0.763195
vn 0.246635 0.597248 0.763195
vn 0.246635 0.597248 0.763195
vn 0.246635 0.597248 0.763195
vn 0.234549 0.559758 0.794769
vn 0.234549 0.559758 0.794769
vn 0.234549 0.559758 0.794769
vn 0.234549 0.559758 0.794769
vn 0.664220 0.564042 0.490580
vn 0.664220 0.564042 0.490580
vn 0.664220 0.564042 0.490580
vn 0.664220 0.564042 0.490580
vn 0.659044 0.601160 0.451960
vn 0.659044 0.601160 0.451960
vn 0.659044 0.601160 0.451960
vn 0.659044 0.601160 0.451960
vn 0.684031 0.631529 0.365065
vn 0.684031 0.631529 0.365065
vn 0.684031 0.631529 0.365065
vn 0.684031 0.631529 0.365065
vn 0.423698 0.806125 0.413089
vn 0.423697 0.806125 0.413089
vn 0.423697 0.806125 0.413089
vn 0.423697 0.806125 0.413089
vn 0.684005 0.726292 -0.068095
vn 0.684005 0.726292 -0.068095
vn 0.684005 0.726292 -0.068095
vn 0.684005 0.726292 -0.068095
vn 0.706787 0.699835 -0.103361
vn 0.706787 0.699835 -0.103361
vn 0.706787 0.699835 -0.103361
vn 0.706787 0.699835 -0.103361
vn 0.668125 0.740359 0.074009
vn 0.668125 0.740359 0.074009
vn 0.668125 0.740359 0.074009
vn 0.668125 0.740359 0.074009
vn 0.394385 0.810845 -0.432426
vn 0.394385 0.810844 -0.432426
vn 0.394385 0.810844 -0.432426
vn 0.394385 0.810845 -0.432426
vn 0.685951 0.696527 -0.210527
vn 0.685951 0.696527 -0.210527
vn 0.685951 0.696527 -0.210527
vn 0.685951 0.696527 -0.210527
vn 0.615242 0.724395 -0.311013
vn 0.615242 0.724395 -0.311013
vn 0.615242 0.724395 -0.311013
vn 0.615242 0.724395 -0.311013
vn 0.512860 0.820897 -0.251201
vn 0.512860 0.820897 -0.251201
vn 0.512860 0.820897 -0.251201
vn 0.512860 0.820897 -0.251201
vn 0.098357 0.564003 -0.819894
vn 0.098357 0.564003 -0.819894
vn 0.098357 0.564003 -0.819894
vn 0.098357 0.564003 -0.819894
vn 0.429822 0.586265 -0.686692
vn 0.429823 0.586265 -0.686692
vn 0.429822 0.586265 -0.686692
vn 0.429823 0.586265 -0.686692
vn 0.426074 0.650839 -0.628387
vn 0.426074 0.650839 -0.628387
vn 0.426074 0.650839 -0.628387
vn 0.426074 0.650839 -0.628387
vn 0.331028 0.746968 -0.576593
vn 0.331028 0.746968 -0.576593
vn 0.331028 0.746968 -0.576593
vn 0.331028 0.746968 -0.576593
vn -0.102044 0.140882 -0.984753
vn -0.102044 0.140882 -0.984753
vn -0.102044 0.140882 -0.984753
vn -0.102044 0.140882 -0.984753
vn 0.091501 0.223649 -0.970365
vn 0.091501 0.223649 -0.970365
vn 0.091501 0.223649 -0.970365
vn 0.091501 0.223649 -0.970365
vn 0.148535 0.270414 -0.951217
vn 0.148535 0.270414 -0.951217
vn 0.148535 0.270414 -0.951217
vn 0.148535 0.270414 -0.951217
vn -0.031279 0.398015 -0.916846
vn -0.031279 0.398015 -0.916846
vn -0.031279 0.398015 -0.916846
vn -0.031279 0.398015 -0.916846
vn -0.218532 0.163399 -0.962052
vn -0.218532 0.163399 -0.962052
vn -0.218532 0.163399 -0.962052
vn -0.218532 0.163399 -0.962052
vn -0.380947 0.407190 -0.830106
vn -0.380947 0.407190 -0.830106
vn -0.380947 0.407190 -0.830106
vn -0.380947 0.407190 -0.830106
vn 0.521418 0.396915 -0.755369
vn 0.521418 0.396915 -0.755369
vn 0.521418 0.396915 -0.755369
vn 0.521418 0.396915 -0.755369
vn -0.056752 0.162260 -0.985115
vn -0.056752 0.162260 -0.985115
vn -0.056752 0.162260 -0.985115
vn -0.056752 0.162260 -0.985115
vn -0.308498 0.077421 -0.948069
vn -0.308498 0.077421 -0.948069
vn -0.308498 0.077421 -0.948069
vn -0.308498 0.077421 -0.948069
vn -0.594729 -0.358287 -0.719672
vn -0.594729 -0.358287 -0.719672
vn -0.594729 -0.358287 -0.719672
vn -0.594729 -0.358287 -0.719672
vn 0.510592 -0.323391 -0.796689
vn 0.510592 -0.323391 -0.796689
vn 0.510592 -0.323391 -0.796689
vn 0.510592 -0.323391 -0.796689
vn 0.262454 0.289665 -0.920441
vn 0.262454 0.289665 -0.920441
vn 0.262454 0.289665 -0.920441
vn 0.262454 0.289665 -0.920441
vn -0.303203 -0.069361 -0.950398
vn -0.303203 -0.069361 -0.950398
vn -0.303203 -0.069361 -0.950398
vn -0.303203 -0.069361 -0.950398
vn -0.284904 -0.065235 -0.956334
vn -0.284904 -0.065235 -0.956334
vn -0.284904 -0.065235 -0.956334
vn -0.284904 -0.065235 -0.956334
vn -0.063066 -0.084553 -0.994421
vn -0.063066 -0.084553 -0.994421
vn -0.063066 -0.084553 -0.994421
vn -0.063066 -0.084553 -0.994421
vn 0.219206 -0.116423 -0.968708
vn 0.219206 -0.116423 -0.968708
vn 0.219206 -0.116423 -0.968708
vn 0.219206 -0.116423 -0.968708
vn -0.580636 -0.308306 -0.753531
vn -0.580636 -0.308306 -0.753531
vn -0.580636 -0.308306 -0.753531
vn -0.580636 -0.308306 -0.753531
vn 0.391395 -0.544072 -0.742156
vn 0.391395 -0.544072 -0.742156
vn 0.391395 -0.544072 -0.742156
vn 0.391395 -0.544072 -0.742156
vn -0.514367 -0.476365 -0.713094
vn -0.514367 -0.476365 -0.713094
vn -0.514367 -0.476365 -0.713094
vn -0.514367 -0.476365 -0.713094
vn 0.396248 -0.314214 -0.862703
vn 0.396248 -0.314214 -0.862703
vn 0.396248 -0.314214 -0.862703
vn 0.396248 -0.314214 -0.862703
vn -0.679876 -0.720758 0.135190
vn -0.679876 -0.720758 0.135190
vn -0.679876 -0.720758 0.135190
vn -0.679876 -0.720758 0.135190
vn -0.345292 -0.590028 -0.729822
vn -0.345292 -0.590028 -0.729822
vn -0.345292 -0.590028 -0.729822
vn -0.345292 -0.590028 -0.729822
vn -0.291790 -0.453242 -0.842277
vn -0.291790 -0.453242 -0.842277
vn -0.291790 -0.453242 -0.842277
vn -0.291790 -0.453242 -0.842277
vn 0.462154 -0.684349 -0.563986
vn 0.462154 -0.684349 -0.563986
vn 0.462154 -0.684349 -0.563986
vn 0.462154 -0.684349 -0.563986
vn -0.457144 -0.864424 -0.209263
vn -0.457144 -0.864424 -0.209263
vn -0.457144 -0.864424 -0.209263
vn -0.457144 -0.864424 -0.209263
vn -0.886543 -0.414695 0.205111
vn -0.886543 -0.414695 0.205111
vn -0.886543 -0.414695 0.205111
vn -0.886543 -0.414695 0.205111
vn 0.069703 -0.970297 0.231658
vn 0.069703 -0.970297 0.231658
vn 0.069703 -0.970297 0.231658
vn 0.069703 -0.970297 0.231658
vn 0.255379 -0.923768 -0.285366
vn 0.255379 -0.923768 -0.285366
vn 0.255379 -0.923768 -0.285366
vn 0.255379 -0.923768 -0.285366
vn -0.552998 -0.831207 -0.057347
vn -0.552998 -0.831207 -0.057347
vn -0.552998 -0.831207 -0.057347
vn -0.552998 -0.831207 -0.057347
vn -0.724199 -0.667953 0.171393
vn -0.724199 -0.667953 0.171393
vn -0.724199 -0.667953 0.171393
vn -0.724199 -0.667953 0.171393
vn -0.279740 -0.786467 0.550650
vn -0.279740 -0.786467 0.550650
vn -0.279740 -0.786467 0.550650
vn -0.279740 -0.786467 0.550650
vn 0.280120 -0.623875 0.729598
vn 0.280120 -0.623875 0.729598
vn 0.280120 -0.623875 0.729598
vn 0.280120 -0.623875 0.729598
vn 0.960026 -0.089289 -0.265289
vn 0.960026 -0.089289 -0.265289
vn 0.960026 -0.089289 -0.265289
vn 0.960026 -0.089289 -0.265289
vn 0.973520 -0.140658 -0.180207
vn 0.973520 -0.140658 -0.180207
vn 0.973520 -0.140658 -0.180207
vn 0.973520 -0.140658 -0.180207
vn 0.986543 -0.150884 0.062986
vn 0.986543 -0.150884 0.062986
vn 0.986543 -0.150884 0.062986
vn 0.986543 -0.150884 0.062986
vn 0.975953 -0.127521 0.176788
vn 0.975953 -0.127521 0.176788
vn 0.975953 -0.127521 0.176788
vn 0.975953 -0.127521 0.176788
vn 0.926936 -0.121058 -0.355154
vn 0.926936 -0.121058 -0.355154
vn 0.926936 -0.121058 -0.355154
vn 0.926936 -0.121058 -0.355154
vn 0.758841 -0.260929 -0.596722
vn 0.758841 -0.260930 -0.596722
vn 0.758841 -0.260930 -0.596722
vn 0.758841 -0.260930 -0.596722
vn 0.808794 -0.370912 0.456373
vn 0.808794 -0.370912 0.456373
vn 0.808794 -0.370912 0.456373
vn 0.808794 -0.370912 0.456373
vn 0.952153 -0.187251 0.241541
vn 0.952153 -0.187251 0.241541
vn 0.952153 -0.187251 0.241541
vn 0.952153 -0.187251 0.241541
vn 0.982025 -0.154554 -0.108353
vn 0.982025 -0.154554 -0.108353
vn 0.982025 -0.154554 -0.108353
vn 0.982025 -0.154554 -0.108353
vn 0.880108 0.255913 -0.399898
vn 0.880108 0.255913 -0.399898
vn 0.880108 0.255913 -0.399898
vn 0.880108 0.255913 -0.399898
vn 0.968113 0.202382 0.147644
vn 0.968113 0.202382 0.147644
vn 0.968113 0.202382 0.147644
vn 0.968113 0.202382 0.147644
vn 0.879296 0.054749 0.473119
vn 0.879296 0.054749 0.473119
vn 0.879296 0.054749 0.473119
vn 0.879296 0.054749 0.473119
vn 0.828289 0.492303 -0.267536
vn 0.828289 0.492303 -0.267536
vn 0.828289 0.492303 -0.267536
vn 0.828289 0.492303 -0.267536
vn 0.824033 0.562937 -0.063812
vn 0.824033 0.562937 -0.063812
vn 0.824033 0.562937 -0.063812
vn 0.824033 0.562937 -0.063812
vn 0.420143 0.903840 -0.080949
vn 0.420143 0.903840 -0.080949
vn 0.420143 0.903840 -0.080949
vn 0.420143 0.903840 -0.080949
vn 0.158438 0.858247 0.488170
vn 0.158438 0.858247 0.488170
vn 0.158438 0.858247 0.488170
vn 0.158438 0.858247 0.488170
vn -0.946304 -0.106866 -0.305105
vn -0.946304 -0.106866 -0.305105
vn -0.946304 -0.106866 -0.305105
vn -0.946304 -0.106866 -0.305105
vn -0.827495 -0.316530 -0.463746
vn -0.827495 -0.316530 -0.463746
vn -0.827495 -0.316530 -0.463746
vn -0.827495 -0.316530 -0.463746
vn -0.902333 -0.354342 0.245431
vn -0.902333 -0.354342 0.245431
vn -0.902333 -0.354342 0.245431
vn -0.902333 -0.354342 0.245431
vn -0.965783 -0.147633 0.213230
vn -0.965783 -0.147633 0.213230
vn -0.965783 -0.147633 0.213230
vn -0.965783 -0.147633 0.213230
vn -0.953154 -0.079975 -0.291721
vn -0.953154 -0.079975 -0.291721
vn -0.953154 -0.079975 -0.291721
vn -0.953154 -0.079975 -0.291721
vn -0.868784 0.134880 -0.476467
vn -0.868784 0.134880 -0.476467
vn -0.868784 0.134880 -0.476467
vn -0.868784 0.134880 -0.476467
vn -0.954532 0.071477 0.289412
vn -0.954532 0.071477 0.289412
vn -0.954532 0.071477 0.289412
vn -0.954532 0.071477 0.289412
vn -0.956369 -0.050763 0.287718
vn -0.956369 -0.050763 0.287718
vn -0.956369 -0.050763 0.287718
vn -0.956369 -0.050763 0.287718
vn -0.907029 -0.030219 -0.419983
vn -0.907029 -0.030219 -0.419983
vn -0.907029 -0.030219 -0.419983
vn -0.907029 -0.030219 -0.419983
vn -0.980207 -0.025033 0.196385
vn -0.980207 -0.025033 0.196385
vn -0.980207 -0.025033 0.196385
vn -0.980207 -0.025033 0.196385
vn -0.972098 0.043071 -0.230586
vn -0.972098 0.043071 -0.230586
vn -0.972098 0.043071 -0.230586
vn -0.972098 0.043071 -0.230586
vn -0.961491 -0.131158 0.241524
vn -0.961491 -0.131158 0.241524
vn -0.961490 -0.131158 0.241524
vn -0.961490 -0.131158 0.241524
vn -0.696703 0.270731 -0.664312
vn -0.696703 0.270731 -0.664312
vn -0.696703 0.270731 -0.664312
vn -0.696703 0.270731 -0.664312
vn -0.927607 0.372161 0.032280
vn -0.927607 0.372161 0.032280
vn -0.927607 0.372161 0.032280
vn -0.927607 0.372161 0.032280
vn -0.892691 0.431811 0.129006
vn -0.892691 0.431811 0.129006
vn -0.892691 0.431811 0.129006
vn -0.892691 0.431811 0.129006
vn -0.631427 0.333838 0.699894
vn -0.631427 0.333838 0.699894
vn -0.631427 0.333838 0.699894
vn -0.631427 0.333838 0.699894
s off
g pCube1
usemtl initialShadingGroup
f 1/1/1 2/2/2 7/7/3 6/6/4
f 2/2/5 3/3/6 8/8/7 7/7/8
f 3/3/9 4/4/10 9/9/11 8/8/12
f 4/4/13 5/5/14 10/10/15 9/9/16
f 6/6/17 7/7/18 12/12/19 11/11/20
f 7/7/21 8/8/22 13/13/23 12/12/24
f 8/8/25 9/9/26 14/14/27 13/13/28
f 9/9/29 10/10/30 15/15/31 14/14/32
f 11/11/33 12/12/34 17/17/35 16/16/36
f 12/12/37 13/13/38 18/18/39 17/17/40
f 13/13/41 14/14/42 19/19/43 18/18/44
f 14/14/45 15/15/46 20/20/47 19/19/48
f 16/16/49 17/17/50 22/22/51 21/21/52
f 17/17/53 18/18/54 23/23/55 22/22/56
f 18/18/57 19/19/58 24/24/59 23/23/60
f 19/19/61 20/20/62 25/25/63 24/24/64
f 21/21/65 22/22/66 27/27/67 26/26/68
f 22/22/69 23/23/70 28/28/71 27/27/72
f 23/23/73 24/24/74 29/29/75 28/28/76
f 24/24/77 25/25/78 30/30/79 29/29/80
f 26/26/81 27/27/82 32/32/83 31/31/84
f 27/27/85 28/28/86 33/33/87 32/32/88
f 28/28/89 29/29/90 34/34/91 33/33/92
f 29/29/93 30/30/94 35/35/95 34/34/96
f 31/31/97 32/32/98 37/37/99 36/36/100
f 32/32/101 33/33/102 38/38/103 37/37/104
f 33/33/105 34/34/106 39/39/107 38/38/108
f 34/34/109 35/35/110 40/40/111 39/39/112
f 36/36/113 37/37/114 42/42/115 41/41/116
f 37/37/117 38/38/118 43/43/119 42/42/120
f 38/38/121 39/39/122 44/44/123 43/43/124
f 39/39/125 40/40/126 45/45/127 44/44/128
f 41/41/129 42/42/130 47/47/131 46/46/132
f 42/42/133 43/43/134 48/48/135 47/47/136
f 43/43/137 44/44/138 49/49/139 48/48/140
f 44/44/141 45/45/142 50/50/143 49/49/144
f 46/46/145 47/47/146 52/52/147 51/51/148
f 47/47/149 48/48/150 53/53/151 52/52/152
f 48/48/153 49/49/154 54/54/155 53/53/156
f 49/49/157 50/50/158 55/55/159 54/54/160
f 51/51/161 52/52/162 57/57/163 56/56/164
f 52/52/165 53/53/166 58/58/167 57/57/168
f 53/53/169 54/54/170 59/59/171 58/58/172
f 54/54/173 55/55/174 60/60/175 59/59/176
f 56/56/177 57/57/178 62/62/179 61/61/180
f 57/57/181 58/58/182 63/63/183 62/62/184
f 58/58/185 59/59/186 64/64/187 63/63/188
f 59/59/189 60/60/190 65/65/191 64/64/192
f 61/61/193 62/62/194 67/67/195 66/66/196
f 62/62/197 63/63/198 68/68/199 67/67/200
f 63/63/201 64/64/202 69/69/203 68/68/204
f 64/64/205 65/65/206 70/70/207 69/69/208
f 66/66/209 67/67/210 72/72/211 71/71/212
f 67/67/213 68/68/214 73/73/215 72/72/216
f 68/68/217 69/69/218 74/74/219 73/73/220
f 69/69/221 70/70/222 75/75/223 74/74/224
f 71/71/225 72/72/226 77/77/227 76/76/228
f 72/72/229 73/73/230 78/78/231 77/77/232
f 73/73/233 74/74/234 79/79/235 78/78/236
f 74/74/237 75/75/238 80/80/239 79/79/240
f 76/76/241 77/77/242 2/82/243 1/81/244
f 77/77/245 78/78/246 3/83/247 2/82/248
f 78/78/249 79/79/250 4/84/251 3/83/252
f 79/79/253 80/80/254 5/85/255 4/84/256
f 70/87/257 65/86/258 60/90/259 81/91/260
f 75/88/261 70/87/262 81/91/263 82/92/264
f 80/89/265 75/88/266 82/92/267 83/93/268
f 5/5/269 80/89/270 83/93/271 10/10/272
f 81/91/273 60/90/274 55/94/275 84/95/276
f 82/92/277 81/91/278 84/95/279 85/96/280
f 83/93/281 82/92/282 85/96/283 86/97/284
f 10/10/285 83/93/286 86/97/287 15/15/288
f 84/95/289 55/94/290 50/98/291 87/99/292
f 85/96/293 84/95/294 87/99/295 88/100/296
f 86/97/297 85/96/298 88/100/299 89/101/300
f 15/15/301 86/97/302 89/101/303 20/20/304
f 87/99/305 50/98/306 45/102/307 40/103/308
f 88/100/309 87/99/310 40/103/311 35/104/312
f 89/101/313 88/100/314 35/104/315 30/105/316
f 20/20/317 89/101/318 30/105/319 25/25/320
f 61/106/321 66/107/322 90/111/323 56/110/324
f 66/107/325 71/108/326 91/112/327 90/111/328
f 71/108/329 76/109/330 92/113/331 91/112/332
f 76/109/333 1/1/334 6/6/335 92/113/336
f 56/110/337 90/111/338 93/115/339 51/114/340
f 90/111/341 91/112/342 94/116/343 93/115/344
f 91/112/345 92/113/346 95/117/347 94/116/348
f 92/113/349 6/6/350 11/11/351 95/117/352
f 51/114/353 93/115/354 96/119/355 46/118/356
f 93/115/357 94/116/358 97/120/359 96/119/360
f 94/116/361 95/117/362 98/121/363 97/120/364
f 95/117/365 11/11/366 16/16/367 98/121/368
f 46/118/369 96/119/370 36/123/371 41/122/372
f 96/119/373 97/120/374 31/124/375 36/123/376
f 97/120/377 98/121/378 26/125/379 31/124/380
f 98/121/381 16/16/382 21/21/383 26/125/384
