# This file uses centimeters as units for non-parametric coordinates.

mtllib astroidPlatform_LP.mtl
g default
v -0.789604 -1.000000 0.571813
v -0.307627 -1.148411 0.688721
v 0.000000 -1.266935 0.676751
v 0.250000 -1.148411 0.688721
v 0.500000 -1.000000 0.571813
v -0.769161 -0.750000 0.615203
v -0.314071 -0.818062 0.778477
v -0.000000 -0.898411 0.866773
v 0.250000 -0.818062 0.759122
v 0.533226 -0.750000 0.564752
v -0.553772 -0.500000 0.739308
v -0.250000 -0.500000 0.906754
v 0.001989 -0.500000 0.849700
v 0.343967 -0.500000 0.608531
v 0.712252 -0.500000 0.511356
v -0.500000 -0.250000 0.824124
v -0.250000 -0.250000 0.944428
v 0.048346 -0.250000 0.789609
v 0.469067 -0.250000 0.501134
v 0.812360 -0.250000 0.500000
v -0.500000 -0.000000 0.728093
v -0.250000 0.000000 0.824124
v 0.023285 0.000000 0.711829
v 0.396937 0.000000 0.501522
v 0.719814 -0.000000 0.500000
v -0.715708 0.000000 0.401870
v -0.320796 -0.000000 0.477319
v 0.047957 -0.000000 0.374046
v 0.469814 -0.000000 0.250000
v 0.812360 0.000000 0.250000
v -1.020163 0.000000 0.017664
v -0.599170 0.000001 0.051926
v -0.035059 -0.000000 -0.003996
v 0.396937 -0.000000 -0.002112
v 0.719814 0.000000 0.000000
v -0.879894 0.000000 -0.271013
v -0.504054 -0.000000 -0.294427
v -0.029083 -0.000000 -0.572732
v 0.273285 -0.000000 -0.479302
v 0.556682 0.000000 -0.278577
v -0.590896 -0.000000 -0.573400
v -0.288471 0.000000 -0.868607
v -0.000000 0.000000 -1.059322
v 0.250000 0.000000 -0.947519
v 0.500000 -0.000000 -0.635883
v -0.665540 -0.250000 -0.619609
v -0.359186 -0.250000 -0.833989
v -0.016535 -0.250000 -1.059349
v 0.250000 -0.250000 -0.985205
v 0.502716 -0.250000 -0.730987
v -0.741290 -0.501386 -0.633551
v -0.419761 -0.500000 -0.741010
v -0.039190 -0.500000 -0.885801
v 0.250000 -0.500000 -0.884906
v 0.500000 -0.500000 -0.752231
v -0.610150 -0.870639 -0.586481
v -0.295459 -0.927166 -0.614687
v -0.001067 -0.922855 -0.744303
v 0.250000 -0.818062 -0.844966
v 0.500000 -0.750000 -0.746101
v -0.500000 -1.291136 -0.500000
v -0.250000 -1.379158 -0.500000
v 0.000000 -1.312625 -0.543394
v 0.250000 -1.148411 -0.694890
v 0.500000 -1.000000 -0.710548
v -0.500000 -1.596861 -0.250000
v -0.250000 -1.699191 -0.250000
v 0.000000 -1.913021 -0.250000
v 0.250000 -1.642510 -0.250000
v 0.500000 -1.148411 -0.333927
v -0.500000 -1.571058 0.000000
v -0.250000 -1.913021 0.000000
v 0.000000 -2.248702 0.000000
v 0.250000 -1.913021 0.000000
v 0.500000 -1.266935 0.000000
v -0.703313 -1.244276 0.256896
v -0.250000 -1.642510 0.250000
v 0.000000 -1.913022 0.250000
v 0.250000 -1.642510 0.250000
v 0.500000 -1.148411 0.269991
v 0.590907 -0.818062 -0.427500
v 0.678189 -0.898411 -0.038245
v 0.623973 -0.818062 0.290662
v 0.689181 -0.500000 -0.427500
v 0.927202 -0.500000 -0.041000
v 0.812360 -0.500000 0.252010
v 0.665662 -0.250000 -0.368652
v 0.811547 -0.250000 -0.018803
v 0.927202 -0.250000 0.250000
v -0.573178 -1.071417 -0.257561
v -0.697867 -1.129158 0.000000
v -0.995699 -0.848643 0.295047
v -0.835304 -0.510973 -0.306073
v -0.828060 -0.501386 -0.015920
v -0.811466 -0.500000 0.366492
v -0.877227 -0.250000 -0.309283
v -0.987723 -0.250000 -0.004443
v -0.640243 -0.250000 0.451287
vt 0.375000 0.000000
vt 0.437500 0.000000
vt 0.500000 0.000000
vt 0.562500 0.000000
vt 0.625000 0.000000
vt 0.375000 0.062500
vt 0.437500 0.062500
vt 0.500000 0.062500
vt 0.562500 0.062500
vt 0.625000 0.062500
vt 0.375000 0.125000
vt 0.437500 0.125000
vt 0.500000 0.125000
vt 0.562500 0.125000
vt 0.625000 0.125000
vt 0.375000 0.187500
vt 0.437500 0.187500
vt 0.500000 0.187500
vt 0.562500 0.187500
vt 0.625000 0.187500
vt 0.375000 0.250000
vt 0.437500 0.250000
vt 0.500000 0.250000
vt 0.562500 0.250000
vt 0.625000 0.250000
vt 0.375000 0.312500
vt 0.437500 0.312500
vt 0.500000 0.312500
vt 0.562500 0.312500
vt 0.625000 0.312500
vt 0.375000 0.375000
vt 0.437500 0.375000
vt 0.500000 0.375000
vt 0.562500 0.375000
vt 0.625000 0.375000
vt 0.375000 0.437500
vt 0.437500 0.437500
vt 0.500000 0.437500
vt 0.562500 0.437500
vt 0.625000 0.437500
vt 0.375000 0.500000
vt 0.437500 0.500000
vt 0.500000 0.500000
vt 0.562500 0.500000
vt 0.625000 0.500000
vt 0.375000 0.562500
vt 0.437500 0.562500
vt 0.500000 0.562500
vt 0.562500 0.562500
vt 0.625000 0.562500
vt 0.375000 0.625000
vt 0.437500 0.625000
vt 0.500000 0.625000
vt 0.562500 0.625000
vt 0.625000 0.625000
vt 0.375000 0.687500
vt 0.437500 0.687500
vt 0.500000 0.687500
vt 0.562500 0.687500
vt 0.625000 0.687500
vt 0.375000 0.750000
vt 0.437500 0.750000
vt 0.500000 0.750000
vt 0.562500 0.750000
vt 0.625000 0.750000
vt 0.375000 0.812500
vt 0.437500 0.812500
vt 0.500000 0.812500
vt 0.562500 0.812500
vt 0.625000 0.812500
vt 0.375000 0.875000
vt 0.437500 0.875000
vt 0.500000 0.875000
vt 0.562500 0.875000
vt 0.625000 0.875000
vt 0.375000 0.937500
vt 0.437500 0.937500
vt 0.500000 0.937500
vt 0.562500 0.937500
vt 0.625000 0.937500
vt 0.375000 1.000000
vt 0.437500 1.000000
vt 0.500000 1.000000
vt 0.562500 1.000000
vt 0.625000 1.000000
vt 0.875000 0.000000
vt 0.812500 0.000000
vt 0.750000 0.000000
vt 0.687500 0.000000
vt 0.875000 0.062500
vt 0.812500 0.062500
vt 0.750000 0.062500
vt 0.687500 0.062500
vt 0.875000 0.125000
vt 0.812500 0.125000
vt 0.750000 0.125000
vt 0.687500 0.125000
vt 0.875000 0.187500
vt 0.812500 0.187500
vt 0.750000 0.187500
vt 0.687500 0.187500
vt 0.875000 0.250000
vt 0.812500 0.250000
vt 0.750000 0.250000
vt 0.687500 0.250000
vt 0.125000 0.000000
vt 0.187500 0.000000
vt 0.250000 0.000000
vt 0.312500 0.000000
vt 0.125000 0.062500
vt 0.187500 0.062500
vt 0.250000 0.062500
vt 0.312500 0.062500
vt 0.125000 0.125000
vt 0.187500 0.125000
vt 0.250000 0.125000
vt 0.312500 0.125000
vt 0.125000 0.187500
vt 0.187500 0.187500
vt 0.250000 0.187500
vt 0.312500 0.187500
vt 0.125000 0.250000
vt 0.187500 0.250000
vt 0.250000 0.250000
vt 0.312500 0.250000
vn -0.323431 -0.204177 0.923961
vn -0.323431 -0.204177 0.923961
vn -0.323431 -0.204177 0.923961
vn -0.323431 -0.204177 0.923961
vn -0.227260 -0.363734 0.903355
vn -0.227260 -0.363734 0.903355
vn -0.227260 -0.363734 0.903355
vn -0.227260 -0.363734 0.903355
vn 0.303221 -0.332739 0.892940
vn 0.303221 -0.332739 0.892940
vn 0.303221 -0.332739 0.892940
vn 0.303221 -0.332739 0.892940
vn 0.536822 -0.121851 0.834850
vn 0.536822 -0.121851 0.834850
vn 0.536822 -0.121851 0.834850
vn 0.536822 -0.121851 0.834850
vn -0.406488 -0.196457 0.892285
vn -0.406488 -0.196457 0.892285
vn -0.406488 -0.196457 0.892285
vn -0.406488 -0.196457 0.892285
vn -0.075190 -0.146167 0.986398
vn -0.075190 -0.146167 0.986398
vn -0.075190 -0.146167 0.986398
vn -0.075190 -0.146167 0.986398
vn 0.489168 0.136091 0.861507
vn 0.489168 0.136091 0.861507
vn 0.489168 0.136091 0.861507
vn 0.489168 0.136091 0.861507
vn 0.392516 0.137909 0.909347
vn 0.392516 0.137909 0.909347
vn 0.392516 0.137909 0.909347
vn 0.392516 0.137909 0.909347
vn -0.454729 -0.165484 0.875121
vn -0.454729 -0.165484 0.875121
vn -0.454729 -0.165484 0.875121
vn -0.454729 -0.165484 0.875121
vn 0.359270 0.008529 0.933195
vn 0.359270 0.008529 0.933195
vn 0.359270 0.008529 0.933195
vn 0.359270 0.008529 0.933195
vn 0.568594 0.079296 0.818788
vn 0.568594 0.079296 0.818787
vn 0.568594 0.079296 0.818787
vn 0.568594 0.079296 0.818787
vn 0.134838 0.171072 0.975988
vn 0.134838 0.171072 0.975988
vn 0.134838 0.171072 0.975988
vn 0.134838 0.171072 0.975988
vn -0.369063 0.369062 0.852986
vn -0.369063 0.369062 0.852986
vn -0.369063 0.369062 0.852986
vn -0.369063 0.369062 0.852986
vn 0.395718 0.355327 0.846847
vn 0.395718 0.355327 0.846847
vn 0.395718 0.355327 0.846847
vn 0.395718 0.355327 0.846847
vn 0.517723 0.228260 0.824537
vn 0.517723 0.228260 0.824537
vn 0.517723 0.228260 0.824537
vn 0.517723 0.228260 0.824537
vn 0.003986 0.000537 0.999992
vn 0.003986 0.000537 0.999992
vn 0.003986 0.000537 0.999992
vn 0.003986 0.000537 0.999992
vn -0.000000 1.000000 0.000000
vn -0.000000 1.000000 0.000000
vn -0.000000 1.000000 0.000000
vn -0.000000 1.000000 0.000000
vn -0.000000 1.000000 -0.000000
vn -0.000000 1.000000 -0.000000
vn -0.000000 1.000000 -0.000000
vn -0.000000 1.000000 -0.000000
vn -0.000000 1.000000 -0.000000
vn -0.000000 1.000000 -0.000000
vn -0.000000 1.000000 -0.000000
vn -0.000000 1.000000 -0.000000
vn 0.000000 1.000000 0.000000
vn 0.000000 1.000000 0.000000
vn 0.000000 1.000000 0.000000
vn 0.000000 1.000000 0.000000
vn -0.000001 1.000000 0.000001
vn -0.000001 1.000000 0.000001
vn -0.000001 1.000000 0.000001
vn -0.000001 1.000000 0.000001
vn 0.000001 1.000000 0.000000
vn 0.000001 1.000000 0.000000
vn 0.000001 1.000000 0.000000
vn 0.000001 1.000000 0.000000
vn -0.000000 1.000000 -0.000000
vn -0.000000 1.000000 -0.000000
vn -0.000000 1.000000 -0.000000
vn -0.000000 1.000000 -0.000000
vn -0.000000 1.000000 0.000000
vn -0.000000 1.000000 0.000000
vn -0.000000 1.000000 0.000000
vn -0.000000 1.000000 0.000000
vn -0.000000 1.000000 -0.000001
vn -0.000000 1.000000 -0.000001
vn -0.000000 1.000000 -0.000001
vn -0.000000 1.000000 -0.000001
vn 0.000000 1.000000 -0.000000
vn 0.000000 1.000000 -0.000000
vn 0.000000 1.000000 -0.000000
vn 0.000000 1.000000 -0.000000
vn -0.000000 1.000000 0.000000
vn -0.000000 1.000000 0.000000
vn -0.000000 1.000000 0.000000
vn -0.000000 1.000000 0.000000
vn -0.000000 1.000000 0.000000
vn -0.000000 1.000000 0.000000
vn -0.000000 1.000000 0.000000
vn -0.000000 1.000000 0.000000
vn -0.000000 1.000000 -0.000000
vn -0.000000 1.000000 -0.000000
vn -0.000000 1.000000 -0.000000
vn -0.000000 1.000000 -0.000000
vn 0.000000 1.000000 0.000000
vn 0.000000 1.000000 0.000000
vn 0.000000 1.000000 0.000000
vn 0.000000 1.000000 0.000000
vn -0.000000 1.000000 0.000000
vn -0.000000 1.000000 0.000000
vn -0.000000 1.000000 0.000000
vn -0.000000 1.000000 0.000000
vn 0.000000 1.000000 -0.000000
vn 0.000000 1.000000 -0.000000
vn 0.000000 1.000000 -0.000000
vn 0.000000 1.000000 -0.000000
vn -0.628871 0.200240 -0.751282
vn -0.628871 0.200240 -0.751283
vn -0.628871 0.200240 -0.751283
vn -0.628871 0.200240 -0.751282
vn -0.550009 0.038258 -0.834282
vn -0.550009 0.038258 -0.834282
vn -0.550009 0.038258 -0.834282
vn -0.550009 0.038258 -0.834282
vn 0.338107 0.059661 -0.939215
vn 0.338107 0.059661 -0.939215
vn 0.338107 0.059661 -0.939215
vn 0.338107 0.059661 -0.939215
vn 0.735700 0.177585 -0.653612
vn 0.735700 0.177586 -0.653612
vn 0.735700 0.177586 -0.653612
vn 0.735700 0.177585 -0.653612
vn -0.456056 -0.016267 -0.889802
vn -0.456056 -0.016267 -0.889802
vn -0.456056 -0.016267 -0.889802
vn -0.456056 -0.016267 -0.889802
vn -0.423210 -0.370329 -0.826892
vn -0.423210 -0.370329 -0.826892
vn -0.423210 -0.370329 -0.826892
vn -0.423210 -0.370329 -0.826892
vn 0.117309 -0.481131 -0.868765
vn 0.117309 -0.481131 -0.868765
vn 0.117309 -0.481131 -0.868765
vn 0.117309 -0.481131 -0.868764
vn 0.604914 -0.127563 -0.786007
vn 0.604914 -0.127563 -0.786007
vn 0.604914 -0.127563 -0.786007
vn 0.604914 -0.127563 -0.786007
vn -0.223249 -0.275192 -0.935109
vn -0.223249 -0.275192 -0.935109
vn -0.223249 -0.275192 -0.935109
vn -0.223249 -0.275192 -0.935109
vn -0.352059 -0.341810 -0.871333
vn -0.352059 -0.341810 -0.871333
vn -0.352059 -0.341810 -0.871333
vn -0.352059 -0.341810 -0.871333
vn -0.130572 -0.242153 -0.961412
vn -0.130572 -0.242153 -0.961412
vn -0.130572 -0.242153 -0.961412
vn -0.130572 -0.242153 -0.961412
vn 0.427262 -0.073084 -0.901169
vn 0.427262 -0.073084 -0.901169
vn 0.427262 -0.073084 -0.901169
vn 0.427262 -0.073084 -0.901169
vn -0.110075 -0.241907 -0.964036
vn -0.110075 -0.241907 -0.964036
vn -0.110075 -0.241907 -0.964035
vn -0.110075 -0.241907 -0.964035
vn -0.241499 -0.352343 -0.904175
vn -0.241499 -0.352343 -0.904175
vn -0.241499 -0.352343 -0.904175
vn -0.241499 -0.352343 -0.904175
vn -0.212021 -0.428421 -0.878352
vn -0.212021 -0.428421 -0.878352
vn -0.212021 -0.428421 -0.878352
vn -0.212021 -0.428421 -0.878352
vn 0.278879 -0.292565 -0.914676
vn 0.278879 -0.292565 -0.914676
vn 0.278879 -0.292565 -0.914676
vn 0.278879 -0.292565 -0.914676
vn -0.231210 -0.607319 -0.760070
vn -0.231210 -0.607319 -0.760070
vn -0.231210 -0.607319 -0.760070
vn -0.231210 -0.607319 -0.760070
vn -0.219050 -0.496039 -0.840216
vn -0.219050 -0.496039 -0.840216
vn -0.219050 -0.496039 -0.840216
vn -0.219050 -0.496039 -0.840216
vn 0.228786 -0.544381 -0.807036
vn 0.228786 -0.544381 -0.807036
vn 0.228786 -0.544381 -0.807036
vn 0.228786 -0.544381 -0.807036
vn 0.664621 -0.588552 -0.460310
vn 0.664621 -0.588552 -0.460310
vn 0.664621 -0.588552 -0.460310
vn 0.664621 -0.588552 -0.460310
vn -0.639453 -0.719629 -0.270619
vn -0.639453 -0.719629 -0.270619
vn -0.639453 -0.719629 -0.270619
vn -0.639453 -0.719629 -0.270619
vn -0.594657 -0.541079 -0.594657
vn -0.594657 -0.541079 -0.594657
vn -0.594657 -0.541079 -0.594657
vn -0.594657 -0.541079 -0.594657
vn 0.610810 -0.503809 -0.610810
vn 0.610810 -0.503809 -0.610810
vn 0.610810 -0.503809 -0.610810
vn 0.610810 -0.503809 -0.610810
vn 0.874693 -0.403356 -0.268731
vn 0.874693 -0.403356 -0.268731
vn 0.874693 -0.403356 -0.268731
vn 0.874693 -0.403356 -0.268731
vn -0.639722 -0.612174 0.464757
vn -0.639722 -0.612174 0.464757
vn -0.639722 -0.612174 0.464757
vn -0.639722 -0.612174 0.464757
vn -0.610811 -0.503809 0.610808
vn -0.610811 -0.503809 0.610808
vn -0.610811 -0.503809 0.610808
vn -0.610811 -0.503809 0.610808
vn 0.610811 -0.503809 0.610808
vn 0.610811 -0.503809 0.610808
vn 0.610811 -0.503809 0.610808
vn 0.610811 -0.503809 0.610809
vn 0.874381 -0.388535 0.290685
vn 0.874381 -0.388535 0.290685
vn 0.874381 -0.388535 0.290685
vn 0.874381 -0.388535 0.290685
vn -0.462513 -0.675857 0.573846
vn -0.462513 -0.675857 0.573846
vn -0.462513 -0.675857 0.573846
vn -0.462513 -0.675857 0.573846
vn -0.382626 -0.570792 0.726494
vn -0.382626 -0.570792 0.726494
vn -0.382626 -0.570792 0.726494
vn -0.382626 -0.570792 0.726494
vn 0.411396 -0.551075 0.725995
vn 0.411396 -0.551075 0.725995
vn 0.411396 -0.551075 0.725995
vn 0.411396 -0.551075 0.725995
vn 0.739222 -0.508687 0.441348
vn 0.739222 -0.508687 0.441348
vn 0.739222 -0.508687 0.441348
vn 0.739222 -0.508687 0.441348
vn 0.963575 -0.192291 -0.185870
vn 0.963575 -0.192291 -0.185870
vn 0.963575 -0.192291 -0.185870
vn 0.963575 -0.192291 -0.185870
vn 0.897264 -0.385928 -0.214422
vn 0.897264 -0.385928 -0.214422
vn 0.897264 -0.385928 -0.214422
vn 0.897264 -0.385928 -0.214422
vn 0.899546 -0.383673 0.208836
vn 0.899546 -0.383673 0.208836
vn 0.899546 -0.383673 0.208836
vn 0.899546 -0.383673 0.208836
vn 0.934451 -0.258849 0.244539
vn 0.934451 -0.258849 0.244539
vn 0.934451 -0.258849 0.244539
vn 0.934451 -0.258849 0.244539
vn 0.898774 -0.159892 -0.408215
vn 0.898774 -0.159892 -0.408215
vn 0.898774 -0.159892 -0.408215
vn 0.898774 -0.159892 -0.408216
vn 0.828358 -0.403016 -0.389104
vn 0.828358 -0.403016 -0.389104
vn 0.828358 -0.403016 -0.389104
vn 0.828358 -0.403016 -0.389104
vn 0.824865 -0.486977 0.287141
vn 0.824866 -0.486977 0.287141
vn 0.824866 -0.486978 0.287141
vn 0.824866 -0.486978 0.287141
vn 0.811404 -0.468084 0.350031
vn 0.811404 -0.468084 0.350031
vn 0.811404 -0.468084 0.350031
vn 0.811404 -0.468084 0.350031
vn 0.884587 0.109424 -0.453357
vn 0.884587 0.109424 -0.453357
vn 0.884587 0.109424 -0.453357
vn 0.884587 0.109424 -0.453357
vn 0.844104 0.306288 -0.440086
vn 0.844104 0.306288 -0.440086
vn 0.844104 0.306288 -0.440086
vn 0.844104 0.306288 -0.440086
vn 0.999998 0.001683 -0.001446
vn 0.999998 0.001683 -0.001446
vn 0.999998 0.001683 -0.001446
vn 0.999998 0.001683 -0.001446
vn 0.859603 -0.359844 0.362762
vn 0.859603 -0.359844 0.362762
vn 0.859603 -0.359844 0.362762
vn 0.859603 -0.359844 0.362762
vn 0.910476 0.306305 -0.277868
vn 0.910476 0.306305 -0.277868
vn 0.910476 0.306305 -0.277868
vn 0.910476 0.306305 -0.277868
vn 0.816394 0.415139 -0.401448
vn 0.816394 0.415139 -0.401448
vn 0.816394 0.415139 -0.401448
vn 0.816394 0.415139 -0.401448
vn 0.862441 0.369333 -0.346105
vn 0.862441 0.369333 -0.346105
vn 0.862441 0.369333 -0.346105
vn 0.862441 0.369333 -0.346105
vn 0.862557 0.357767 0.357768
vn 0.862557 0.357767 0.357768
vn 0.862557 0.357767 0.357768
vn 0.862557 0.357767 0.357768
vn -0.973329 -0.199837 -0.112678
vn -0.973329 -0.199837 -0.112678
vn -0.973329 -0.199837 -0.112678
vn -0.973329 -0.199837 -0.112678
vn -0.932886 -0.263310 -0.245745
vn -0.932886 -0.263310 -0.245745
vn -0.932886 -0.263310 -0.245745
vn -0.932886 -0.263310 -0.245745
vn -0.843597 -0.483126 -0.234378
vn -0.843597 -0.483126 -0.234378
vn -0.843597 -0.483127 -0.234378
vn -0.843597 -0.483126 -0.234378
vn -0.826551 -0.398367 0.397639
vn -0.826552 -0.398367 0.397639
vn -0.826552 -0.398367 0.397639
vn -0.826551 -0.398367 0.397639
vn -0.893562 -0.399115 -0.205560
vn -0.893561 -0.399115 -0.205560
vn -0.893562 -0.399115 -0.205560
vn -0.893562 -0.399115 -0.205560
vn -0.921437 -0.316459 -0.225406
vn -0.921437 -0.316459 -0.225406
vn -0.921437 -0.316459 -0.225406
vn -0.921437 -0.316459 -0.225406
vn -0.909863 0.073576 -0.408334
vn -0.909863 0.073576 -0.408334
vn -0.909863 0.073576 -0.408334
vn -0.909863 0.073576 -0.408334
vn -0.787331 0.362731 0.498535
vn -0.787331 0.362731 0.498535
vn -0.787331 0.362731 0.498535
vn -0.787331 0.362731 0.498535
vn -0.900055 0.068438 -0.430368
vn -0.900055 0.068438 -0.430368
vn -0.900055 0.068438 -0.430368
vn -0.900055 0.068438 -0.430368
vn -0.920320 -0.359612 -0.153915
vn -0.920320 -0.359612 -0.153915
vn -0.920320 -0.359612 -0.153915
vn -0.920320 -0.359612 -0.153915
vn -0.915768 -0.055283 0.397885
vn -0.915768 -0.055283 0.397885
vn -0.915768 -0.055283 0.397885
vn -0.915768 -0.055283 0.397885
vn -0.858394 0.230870 0.458104
vn -0.858394 0.230870 0.458104
vn -0.858394 0.230870 0.458104
vn -0.858394 0.230870 0.458104
vn -0.756516 0.213352 -0.618194
vn -0.756516 0.213352 -0.618194
vn -0.756516 0.213352 -0.618194
vn -0.756516 0.213352 -0.618194
vn -0.921012 -0.017681 -0.389134
vn -0.921012 -0.017681 -0.389134
vn -0.921012 -0.017681 -0.389134
vn -0.921012 -0.017681 -0.389134
vn -0.782657 -0.135724 0.607476
vn -0.782657 -0.135724 0.607476
vn -0.782657 -0.135724 0.607476
vn -0.782657 -0.135724 0.607476
vn -0.891126 -0.002504 0.453748
vn -0.891126 -0.002504 0.453749
vn -0.891126 -0.002504 0.453748
vn -0.891126 -0.002504 0.453748
s off
g astroidPlatform
usemtl initialShadingGroup
f 1/1/1 2/2/2 7/7/3 6/6/4
f 2/2/5 3/3/6 8/8/7 7/7/8
f 3/3/9 4/4/10 9/9/11 8/8/12
f 4/4/13 5/5/14 10/10/15 9/9/16
f 6/6/17 7/7/18 12/12/19 11/11/20
f 7/7/21 8/8/22 13/13/23 12/12/24
f 8/8/25 9/9/26 14/14/27 13/13/28
f 9/9/29 10/10/30 15/15/31 14/14/32
f 11/11/33 12/12/34 17/17/35 16/16/36
f 12/12/37 13/13/38 18/18/39 17/17/40
f 13/13/41 14/14/42 19/19/43 18/18/44
f 14/14/45 15/15/46 20/20/47 19/19/48
f 16/16/49 17/17/50 22/22/51 21/21/52
f 17/17/53 18/18/54 23/23/55 22/22/56
f 18/18/57 19/19/58 24/24/59 23/23/60
f 19/19/61 20/20/62 25/25/63 24/24/64
f 21/21/65 22/22/66 27/27/67 26/26/68
f 22/22/69 23/23/70 28/28/71 27/27/72
f 23/23/73 24/24/74 29/29/75 28/28/76
f 24/24/77 25/25/78 30/30/79 29/29/80
f 26/26/81 27/27/82 32/32/83 31/31/84
f 27/27/85 28/28/86 33/33/87 32/32/88
f 28/28/89 29/29/90 34/34/91 33/33/92
f 29/29/93 30/30/94 35/35/95 34/34/96
f 31/31/97 32/32/98 37/37/99 36/36/100
f 32/32/101 33/33/102 38/38/103 37/37/104
f 33/33/105 34/34/106 39/39/107 38/38/108
f 34/34/109 35/35/110 40/40/111 39/39/112
f 36/36/113 37/37/114 42/42/115 41/41/116
f 37/37/117 38/38/118 43/43/119 42/42/120
f 38/38/121 39/39/122 44/44/123 43/43/124
f 39/39/125 40/40/126 45/45/127 44/44/128
f 41/41/129 42/42/130 47/47/131 46/46/132
f 42/42/133 43/43/134 48/48/135 47/47/136
f 43/43/137 44/44/138 49/49/139 48/48/140
f 44/44/141 45/45/142 50/50/143 49/49/144
f 46/46/145 47/47/146 52/52/147 51/51/148
f 47/47/149 48/48/150 53/53/151 52/52/152
f 48/48/153 49/49/154 54/54/155 53/53/156
f 49/49/157 50/50/158 55/55/159 54/54/160
f 51/51/161 52/52/162 57/57/163 56/56/164
f 52/52/165 53/53/166 58/58/167 57/57/168
f 53/53/169 54/54/170 59/59/171 58/58/172
f 54/54/173 55/55/174 60/60/175 59/59/176
f 56/56/177 57/57/178 62/62/179 61/61/180
f 57/57/181 58/58/182 63/63/183 62/62/184
f 58/58/185 59/59/186 64/64/187 63/63/188
f 59/59/189 60/60/190 65/65/191 64/64/192
f 61/61/193 62/62/194 67/67/195 66/66/196
f 62/62/197 63/63/198 68/68/199 67/67/200
f 63/63/201 64/64/202 69/69/203 68/68/204
f 64/64/205 65/65/206 70/70/207 69/69/208
f 66/66/209 67/67/210 72/72/211 71/71/212
f 67/67/213 68/68/214 73/73/215 72/72/216
f 68/68/217 69/69/218 74/74/219 73/73/220
f 69/69/221 70/70/222 75/75/223 74/74/224
f 71/71/225 72/72/226 77/77/227 76/76/228
f 72/72/229 73/73/230 78/78/231 77/77/232
f 73/73/233 74/74/234 79/79/235 78/78/236
f 74/74/237 75/75/238 80/80/239 79/79/240
f 76/76/241 77/77/242 2/82/243 1/81/244
f 77/77/245 78/78/246 3/83/247 2/82/248
f 78/78/249 79/79/250 4/84/251 3/83/252
f 79/79/253 80/80/254 5/85/255 4/84/256
f 70/87/257 65/86/258 60/90/259 81/91/260
f 75/88/261 70/87/262 81/91/263 82/92/264
f 80/89/265 75/88/266 82/92/267 83/93/268
f 5/5/269 80/89/270 83/93/271 10/10/272
f 81/91/273 60/90/274 55/94/275 84/95/276
f 82/92/277 81/91/278 84/95/279 85/96/280
f 83/93/281 82/92/282 85/96/283 86/97/284
f 10/10/285 83/93/286 86/97/287 15/15/288
f 84/95/289 55/94/290 50/98/291 87/99/292
f 85/96/293 84/95/294 87/99/295 88/100/296
f 86/97/297 85/96/298 88/100/299 89/101/300
f 15/15/301 86/97/302 89/101/303 20/20/304
f 87/99/305 50/98/306 45/102/307 40/103/308
f 88/100/309 87/99/310 40/103/311 35/104/312
f 89/101/313 88/100/314 35/104/315 30/105/316
f 20/20/317 89/101/318 30/105/319 25/25/320
f 61/106/321 66/107/322 90/111/323 56/110/324
f 66/107/325 71/108/326 91/112/327 90/111/328
f 71/108/329 76/109/330 92/113/331 91/112/332
f 76/109/333 1/1/334 6/6/335 92/113/336
f 56/110/337 90/111/338 93/115/339 51/114/340
f 90/111/341 91/112/342 94/116/343 93/115/344
f 91/112/345 92/113/346 95/117/347 94/116/348
f 92/113/349 6/6/350 11/11/351 95/117/352
f 51/114/353 93/115/354 96/119/355 46/118/356
f 93/115/357 94/116/358 97/120/359 96/119/360
f 94/116/361 95/117/362 98/121/363 97/120/364
f 95/117/365 11/11/366 16/16/367 98/121/368
f 46/118/369 96/119/370 36/123/371 41/122/372
f 96/119/373 97/120/374 31/124/375 36/123/376
f 97/120/377 98/121/378 26/125/379 31/124/380
f 98/121/381 16/16/382 21/21/383 26/125/384
