# This file uses centimeters as units for non-parametric coordinates.

mtllib Hydra_LP.mtl
g default
v 0.000000 0.853940 0.013413
v -0.911983 0.853940 -1.066104
v -1.318871 0.853940 -0.152144
v -0.527675 0.853940 1.218248
v 0.527675 0.853940 1.218248
v 1.318871 0.853940 -0.152144
v 0.911983 0.853940 -1.066104
v -0.342223 -0.021479 -3.605153
v 0.342223 -0.021479 -3.605153
v -2.154073 0.886693 1.586483
v -2.450971 0.886693 1.072241
v 2.450971 0.886693 1.072241
v 2.154073 0.886693 1.586483
v -0.911983 1.592849 -1.066104
v -1.318871 1.592849 -0.152144
v 0.000000 1.592849 0.013413
v -0.527675 1.592849 1.218248
v 0.527675 1.592849 1.218248
v 1.318871 1.592849 -0.152144
v 0.911983 1.592849 -1.066104
v 0.342223 0.717430 -3.605153
v -0.342223 0.717430 -3.605153
v -2.450971 1.625603 1.072241
v -2.154073 1.625603 1.586483
v 2.154073 1.625603 1.586483
v 2.450971 1.625603 1.072241
v -2.043421 0.508187 -0.235727
v -2.043421 -0.509057 -0.235727
v -1.413000 -0.509057 -1.651791
v -1.413000 0.508187 -1.651791
v -0.771142 -0.259820 -3.270346
v -0.771142 0.259820 -3.270346
v -2.497698 0.323192 2.128215
v -3.166707 0.323192 1.055794
v -3.166707 0.842832 1.055794
v -2.497698 0.842832 2.128215
v -2.495853 0.508187 -0.989145
v -2.495853 -0.509057 -0.989145
v -2.719393 -0.509057 -2.201346
v -2.719393 0.508187 -2.201346
v -0.921792 -0.259820 -4.240418
v -0.921792 0.259820 -4.240418
v -4.315348 0.323192 0.945043
v -4.315348 0.842832 0.945043
v -4.500636 0.323192 2.907103
v -4.855604 0.323192 2.555389
v -4.855604 0.842832 2.555389
v -4.500636 0.842832 2.907103
v -3.531435 0.842832 2.160072
v -3.531435 0.323192 2.160072
v 2.043421 0.508187 -0.235727
v 2.043421 -0.509057 -0.235727
v 1.413000 -0.509057 -1.651791
v 1.413000 0.508187 -1.651791
v 0.771142 -0.259820 -3.270346
v 0.771142 0.259820 -3.270346
v 2.497698 0.323192 2.128215
v 3.166707 0.323192 1.055794
v 3.166707 0.842832 1.055794
v 2.497698 0.842832 2.128215
v 2.495853 0.508187 -0.989145
v 2.495853 -0.509057 -0.989145
v 2.719393 -0.509057 -2.201346
v 2.719393 0.508187 -2.201346
v 0.921792 -0.259820 -4.240418
v 0.921792 0.259820 -4.240418
v 4.315348 0.323192 0.945043
v 4.315348 0.842832 0.945043
v 4.500636 0.323192 2.907103
v 4.855604 0.323192 2.555389
v 4.855604 0.842832 2.555389
v 4.500636 0.842832 2.907103
v 3.531435 0.842832 2.160072
v 3.531435 0.323192 2.160072
vt 0.427086 0.694181
vt 0.427086 0.682437
vt 0.406247 0.684968
vt 0.510420 0.694162
vt 0.510420 0.682700
vt 0.489580 0.685100
vt 0.593753 0.687500
vt 0.593753 0.682437
vt 0.572914 0.684968
vt 0.406247 0.690613
vt 0.406247 0.684968
vt 0.390623 0.689057
vt 0.489580 0.700862
vt 0.489580 0.685100
vt 0.427086 0.694181
vt 0.572914 0.700824
vt 0.572914 0.684968
vt 0.510420 0.694162
vt 0.411482 0.684968
vt 0.411482 0.690613
vt 0.506191 0.685100
vt 0.506191 0.700862
vt 0.589623 0.684968
vt 0.589623 0.700824
vt 0.427086 0.694181
vt 0.427086 0.682437
vt 0.406247 0.684968
vt 0.510420 0.694162
vt 0.510420 0.682700
vt 0.489580 0.685100
vt 0.593753 0.687500
vt 0.593753 0.682437
vt 0.572914 0.684968
vt 0.406247 0.690613
vt 0.406247 0.684968
vt 0.390623 0.689057
vt 0.489580 0.700862
vt 0.489580 0.685100
vt 0.427086 0.694181
vt 0.572914 0.700824
vt 0.572914 0.684968
vt 0.510420 0.694162
vt 0.411482 0.690613
vt 0.411482 0.684968
vt 0.506191 0.700862
vt 0.506191 0.685100
vt 0.589623 0.700824
vt 0.589623 0.684968
vt 0.427086 0.694181
vt 0.427086 0.682437
vt 0.510420 0.694162
vt 0.510420 0.682700
vt 0.593753 0.687500
vt 0.593753 0.682437
vt 0.411482 0.684968
vt 0.406247 0.684968
vt 0.406247 0.690613
vt 0.411482 0.690613
vt 0.506191 0.685100
vt 0.489580 0.685100
vt 0.489580 0.700862
vt 0.506191 0.700862
vt 0.589623 0.684968
vt 0.572914 0.684968
vt 0.572914 0.700824
vt 0.589623 0.700824
vt 0.572914 0.684968
vt 0.492188 0.688278
vt 0.492188 0.312500
vt 0.572914 0.312500
vt 0.526042 0.687500
vt 0.572914 0.687500
vt 0.572914 0.312500
vt 0.526042 0.312500
vt 0.390623 0.687500
vt 0.390623 0.312500
vt 0.572914 0.684968
vt 0.572914 0.312500
vt 0.492188 0.312500
vt 0.492188 0.688278
vt 0.510420 0.312500
vt 0.572914 0.312500
vt 0.572914 0.687500
vt 0.510420 0.687500
vt 0.390623 0.312500
vt 0.390623 0.687500
vt 0.572914 0.312500
vt 0.492188 0.312500
vt 0.492188 0.688278
vt 0.572914 0.684968
vt 0.510420 0.687500
vt 0.510420 0.687500
vt 0.510420 0.312500
vt 0.510420 0.312500
vt 0.390623 0.312500
vt 0.390623 0.687500
vt 0.572914 0.684968
vt 0.572914 0.312500
vt 0.492188 0.312500
vt 0.492188 0.688278
vt 0.526042 0.687500
vt 0.526042 0.312500
vt 0.572914 0.312500
vt 0.572914 0.687500
vt 0.390623 0.312500
vt 0.390623 0.687500
vt 0.572914 0.684968
vt 0.492188 0.688278
vt 0.492188 0.312500
vt 0.572914 0.312500
vt 0.510420 0.312500
vt 0.510420 0.687500
vt 0.572914 0.687500
vt 0.572914 0.312500
vt 0.390623 0.687500
vt 0.390623 0.312500
vt 0.572914 0.312500
vt 0.492188 0.312500
vt 0.492188 0.688278
vt 0.572914 0.684968
vt 0.510420 0.687500
vt 0.510420 0.312500
vt 0.510420 0.312500
vt 0.510420 0.687500
vt 0.390623 0.312500
vt 0.390623 0.687500
vn 0.000000 1.000000 0.000000
vn 0.000000 1.000000 0.000000
vn 0.000000 1.000000 0.000000
vn 0.000000 1.000000 0.000000
vn 0.000000 1.000000 0.000000
vn 0.000000 1.000000 0.000000
vn 0.000000 1.000000 0.000000
vn 0.000000 1.000000 0.000000
vn 0.000000 1.000000 0.000000
vn 0.000000 0.960954 -0.276709
vn 0.000000 0.960954 -0.276709
vn 0.000000 1.000000 -0.000000
vn 0.013179 0.999884 -0.007609
vn 0.013127 0.999885 -0.007579
vn 0.000000 1.000000 0.000000
vn -0.013127 0.999885 -0.007579
vn -0.013179 0.999884 -0.007609
vn 0.000000 1.000000 0.000000
vn 0.000000 0.945386 -0.325953
vn 0.000000 0.945386 -0.325953
vn 0.017807 0.999789 -0.010281
vn 0.017807 0.999789 -0.010281
vn -0.017807 0.999789 -0.010281
vn -0.017807 0.999789 -0.010281
vn -0.000000 -1.000000 -0.000000
vn -0.000000 -1.000000 -0.000000
vn -0.000000 -1.000000 -0.000000
vn -0.000000 -1.000000 0.000000
vn -0.000000 -1.000000 0.000000
vn -0.000000 -1.000000 0.000000
vn 0.000000 -1.000000 0.000000
vn 0.000000 -1.000000 0.000000
vn 0.000000 -1.000000 0.000000
vn -0.000000 -0.960954 0.276708
vn 0.000000 -1.000000 -0.000000
vn -0.000000 -0.960954 0.276709
vn -0.013179 -0.999884 0.007609
vn -0.000000 -1.000000 0.000000
vn -0.013127 -0.999885 0.007579
vn 0.013127 -0.999885 0.007579
vn 0.000000 -1.000000 0.000000
vn 0.013179 -0.999884 0.007609
vn -0.000000 -0.945386 0.325952
vn -0.000000 -0.945386 0.325952
vn -0.017807 -0.999789 0.010281
vn -0.017807 -0.999789 0.010281
vn 0.017807 -0.999789 0.010281
vn 0.017807 -0.999789 0.010281
vn -0.964173 0.000000 -0.265275
vn -0.812214 0.000000 -0.583359
vn -0.811085 0.000000 -0.584928
vn -0.959576 0.000000 -0.281451
vn 0.135373 0.000000 0.990795
vn -0.135373 0.000000 0.990795
vn -0.136687 0.000000 0.990614
vn 0.136687 0.000000 0.990614
vn 0.812215 0.000000 -0.583359
vn 0.964173 0.000000 -0.265275
vn 0.959576 0.000000 -0.281451
vn 0.811086 0.000000 -0.584928
vn 0.975735 0.000000 -0.218954
vn 0.975735 0.000000 -0.218954
vn 0.000000 0.000000 -1.000000
vn 0.000000 0.000000 -1.000000
vn 0.000000 0.000000 -1.000000
vn 0.000000 0.000000 -1.000000
vn -0.975735 0.000000 -0.218954
vn -0.975735 0.000000 -0.218954
vn -0.734236 0.000000 -0.678895
vn -0.734236 0.000000 -0.678895
vn -0.866026 0.000000 0.500000
vn -0.866026 0.000000 0.500000
vn -0.866026 0.000000 0.500000
vn -0.866026 0.000000 0.500000
vn 0.220822 0.000000 0.975314
vn 0.220822 0.000000 0.975314
vn -0.220822 0.000000 0.975314
vn -0.220822 0.000000 0.975314
vn 0.866025 0.000000 0.500000
vn 0.866025 0.000000 0.500000
vn 0.866025 0.000000 0.500000
vn 0.866025 0.000000 0.500000
vn 0.734236 0.000000 -0.678894
vn 0.734236 0.000000 -0.678894
vn -0.911289 0.000000 -0.411766
vn -0.929634 0.000000 -0.368485
vn -0.929652 0.000000 -0.368439
vn -0.937787 0.000000 -0.347210
vn -0.948068 0.000000 -0.318068
vn -0.948068 0.000000 -0.318068
vn -0.948068 0.000000 -0.318068
vn -0.948068 0.000000 -0.318068
vn -0.750126 0.000000 -0.661295
vn -0.750126 0.000000 -0.661295
vn -0.728372 0.000000 -0.685182
vn -0.728372 0.000000 -0.685182
vn 0.845948 0.000000 0.533266
vn 0.863190 0.000000 0.504879
vn 0.920728 0.000000 0.390206
vn 0.920729 0.000000 0.390203
vn 0.848444 0.000000 -0.529285
vn 0.848444 0.000000 -0.529285
vn 0.848444 0.000000 -0.529285
vn 0.848444 0.000000 -0.529285
vn 0.929575 0.000000 0.368634
vn 0.929575 0.000000 0.368634
vn 0.754541 0.000000 0.656253
vn 0.754541 0.000000 0.656253
vn -0.133063 -0.959957 0.246531
vn -0.076061 -0.987095 0.140920
vn 0.057528 -0.996819 -0.055159
vn 0.053242 -0.997276 -0.051050
vn 0.053058 0.997295 -0.050872
vn 0.057329 0.996841 -0.054968
vn 0.030770 0.997899 -0.057008
vn 0.055555 0.993136 -0.102929
vn 0.362433 0.000000 0.932010
vn 0.610476 0.000000 0.792035
vn 0.610476 0.000000 0.792035
vn 0.362433 0.000000 0.932010
vn 0.083267 -0.993324 -0.079838
vn 0.083267 -0.993324 -0.079838
vn 0.082981 0.993370 -0.079563
vn 0.082981 0.993370 -0.079563
vn 0.074120 0.987749 -0.137325
vn 0.074120 0.987749 -0.137325
vn -0.173694 -0.930736 0.321809
vn -0.173694 -0.930736 0.321809
vn 0.988155 0.000000 -0.153457
vn 0.988155 0.000000 -0.153457
vn 0.988155 0.000000 -0.153457
vn 0.988155 0.000000 -0.153457
vn -0.703842 0.000000 0.710356
vn -0.703842 0.000000 0.710356
vn -0.703842 0.000000 0.710356
vn -0.703842 0.000000 0.710356
vn 0.030803 0.000000 0.999526
vn 0.030803 0.000000 0.999526
vn 0.000000 1.000000 -0.000000
vn 0.000000 1.000000 -0.000000
vn 0.000000 1.000000 -0.000000
vn 0.000000 1.000000 -0.000000
vn 0.000000 1.000000 -0.000000
vn 0.000000 1.000000 -0.000000
vn 0.000000 1.000000 -0.000000
vn 0.000000 1.000000 -0.000000
vn 0.000000 -1.000000 0.000000
vn 0.000000 -1.000000 0.000000
vn 0.000000 -1.000000 0.000000
vn 0.000000 -1.000000 0.000000
vn 0.000000 -1.000000 -0.000000
vn 0.000000 -1.000000 -0.000000
vn 0.000000 -1.000000 -0.000000
vn 0.000000 -1.000000 -0.000000
vn 0.911289 0.000000 -0.411766
vn 0.937787 0.000000 -0.347210
vn 0.929652 0.000000 -0.368439
vn 0.929634 0.000000 -0.368485
vn 0.948068 0.000000 -0.318068
vn 0.948068 0.000000 -0.318068
vn 0.948068 0.000000 -0.318068
vn 0.948068 0.000000 -0.318068
vn 0.750126 0.000000 -0.661295
vn 0.750126 0.000000 -0.661295
vn 0.728372 0.000000 -0.685182
vn 0.728372 0.000000 -0.685182
vn -0.845948 0.000000 0.533266
vn -0.920729 0.000000 0.390203
vn -0.920728 0.000000 0.390206
vn -0.863190 0.000000 0.504879
vn -0.848444 0.000000 -0.529285
vn -0.848444 0.000000 -0.529285
vn -0.848444 0.000000 -0.529285
vn -0.848444 0.000000 -0.529285
vn -0.929575 0.000000 0.368634
vn -0.929575 0.000000 0.368634
vn -0.754541 0.000000 0.656253
vn -0.754541 0.000000 0.656253
vn 0.133063 -0.959957 0.246531
vn -0.053242 -0.997276 -0.051050
vn -0.057528 -0.996819 -0.055159
vn 0.076061 -0.987095 0.140920
vn -0.053058 0.997295 -0.050872
vn -0.055555 0.993136 -0.102929
vn -0.030770 0.997899 -0.057008
vn -0.057329 0.996841 -0.054968
vn -0.362433 0.000000 0.932010
vn -0.362433 0.000000 0.932010
vn -0.610476 0.000000 0.792035
vn -0.610476 0.000000 0.792035
vn -0.083267 -0.993324 -0.079838
vn -0.083267 -0.993324 -0.079838
vn -0.082981 0.993370 -0.079563
vn -0.082981 0.993370 -0.079563
vn -0.074120 0.987749 -0.137325
vn -0.074120 0.987749 -0.137325
vn 0.173694 -0.930736 0.321809
vn 0.173694 -0.930736 0.321809
vn -0.988155 0.000000 -0.153457
vn -0.988155 0.000000 -0.153457
vn -0.988155 0.000000 -0.153457
vn -0.988155 0.000000 -0.153457
vn 0.703842 0.000000 0.710356
vn 0.703842 0.000000 0.710356
vn 0.703842 0.000000 0.710356
vn 0.703842 0.000000 0.710356
vn -0.030803 0.000000 0.999526
vn -0.030803 0.000000 0.999526
vn 0.000000 1.000000 0.000000
vn 0.000000 1.000000 0.000000
vn 0.000000 1.000000 0.000000
vn 0.000000 1.000000 0.000000
vn 0.000000 1.000000 0.000000
vn 0.000000 1.000000 0.000000
vn 0.000000 1.000000 0.000000
vn 0.000000 1.000000 0.000000
vn 0.000000 -1.000000 0.000000
vn 0.000000 -1.000000 0.000000
vn 0.000000 -1.000000 0.000000
vn 0.000000 -1.000000 0.000000
vn 0.000000 -1.000000 0.000000
vn 0.000000 -1.000000 0.000000
vn 0.000000 -1.000000 0.000000
vn 0.000000 -1.000000 0.000000
s off
g Hydra_Neon
usemtl samSG1
f 14/49/1 15/50/2 16/3/3
f 17/51/4 18/52/5 16/6/6
f 19/53/7 20/54/8 16/9/9
s 1
f 20/57/10 14/56/11 16/12/12
s 2
f 15/61/13 17/60/14 16/15/15
s 3
f 18/65/16 19/64/17 16/18/18
s 1
f 14/58/11 20/55/10 21/56/19 22/57/20
s 2
f 17/62/14 15/59/13 23/60/21 24/61/22
s 3
f 19/66/17 18/63/16 25/64/23 26/65/24
s off
f 2/25/25 1/27/26 3/26/27
f 4/28/28 1/30/29 5/29/30
f 6/31/31 1/33/32 7/32/33
s 4
f 7/34/34 1/36/35 2/35/36
s 5
f 3/37/37 1/39/38 4/38/39
s 6
f 5/40/40 1/42/41 6/41/42
s 4
f 2/43/36 8/34/43 9/35/44 7/44/34
s 5
f 4/45/39 10/37/45 11/38/46 3/46/37
s 6
f 6/47/42 12/40/47 13/41/48 5/48/40
s 7
f 2/1/49 3/2/50 15/50/51 14/49/52
s 8
f 4/4/53 5/5/54 18/52/55 17/51/56
s 9
f 6/7/57 7/8/58 20/54/59 19/53/60
f 7/19/58 9/11/61 21/56/62 20/55/59
s off
f 9/11/63 8/10/64 22/57/65 21/56/66
s 7
f 8/10/67 2/20/49 14/58/52 22/57/68
f 3/21/50 11/14/69 23/60/70 15/59/51
s off
f 11/14/71 10/13/72 24/61/73 23/60/74
s 8
f 10/13/75 4/22/53 17/62/56 24/61/76
f 5/23/54 13/17/77 25/64/78 18/63/55
s off
f 13/17/79 12/16/80 26/65/81 25/64/82
s 9
f 12/16/83 6/24/57 19/66/60 26/65/84
s 10
f 37/67/85 40/68/86 39/69/87 38/70/88
s off
f 47/71/89 44/72/90 43/73/91 46/74/92
s 10
f 40/68/86 42/75/93 41/76/94 39/69/87
f 38/70/88 43/73/95 44/72/96 37/67/85
s 11
f 27/77/97 28/78/98 29/79/99 30/80/100
s off
f 33/81/101 34/82/102 35/83/103 36/84/104
s 11
f 30/80/100 29/79/99 31/85/105 32/86/106
f 28/78/98 27/77/97 35/83/107 34/82/108
s 12
f 28/87/109 38/70/110 39/69/111 29/88/112
s 13
f 30/89/113 40/68/114 37/67/115 27/90/116
s 14
f 49/91/117 48/92/118 45/93/119 50/94/120
s 12
f 29/88/112 39/69/111 41/76/121 31/95/122
s 13
f 32/96/123 42/75/124 40/68/114 30/89/113
f 27/90/116 37/67/115 44/72/125 35/83/126
s 12
f 34/82/127 43/73/128 38/70/110 28/87/109
s off
f 32/96/129 31/85/130 41/76/131 42/75/132
f 45/93/133 48/92/134 47/71/135 46/74/136
s 14
f 36/84/137 49/91/117 50/94/120 33/81/138
s off
f 44/72/139 49/91/140 36/84/141 35/83/142
f 47/71/143 48/92/144 49/91/145 44/72/146
f 50/94/147 43/73/148 34/82/149 33/81/150
f 43/73/151 50/94/152 45/93/153 46/74/154
s 15
f 61/97/155 62/98/156 63/99/157 64/100/158
s off
f 71/101/159 70/102/160 67/103/161 68/104/162
s 15
f 64/100/158 63/99/157 65/105/163 66/106/164
f 62/98/156 61/97/155 68/104/165 67/103/166
s 16
f 51/107/167 54/108/168 53/109/169 52/110/170
s off
f 57/111/171 60/112/172 59/113/173 58/114/174
s 16
f 54/108/168 56/115/175 55/116/176 53/109/169
f 52/110/170 58/114/177 59/113/178 51/107/167
s 17
f 52/117/179 53/118/180 63/99/181 62/98/182
s 18
f 54/119/183 51/120/184 61/97/185 64/100/186
s 19
f 73/121/187 74/122/188 69/123/189 72/124/190
s 17
f 53/118/180 55/125/191 65/105/192 63/99/181
s 18
f 56/126/193 54/119/183 64/100/186 66/106/194
f 51/120/184 59/113/195 68/104/196 61/97/185
s 17
f 58/114/197 52/117/179 62/98/182 67/103/198
s off
f 56/126/199 66/106/200 65/105/201 55/116/202
f 69/123/203 70/102/204 71/101/205 72/124/206
s 19
f 60/112/207 57/111/208 74/122/188 73/121/187
s off
f 68/104/209 59/113/210 60/112/211 73/121/212
f 71/101/213 68/104/214 73/121/215 72/124/216
f 74/122/217 57/111/218 58/114/219 67/103/220
f 67/103/221 70/102/222 69/123/223 74/122/224
g default
v -1.412999 -1.057345 -1.651791
v 1.413000 -1.057345 -1.651791
v 1.413000 1.055539 -1.651791
v -1.412999 1.055539 -1.651791
v -0.817565 -1.057345 1.887518
v -2.043421 -1.057345 -0.235728
v -2.043421 1.055539 -0.235728
v -0.817565 1.055539 1.887518
v 2.043421 -1.057345 -0.235727
v 0.817565 -1.057345 1.887518
v 0.817565 1.055539 1.887518
v 2.043421 1.055539 -0.235727
v 0.771142 -0.539664 -3.270346
v -0.771143 -0.539664 -3.270346
v -0.771143 0.539664 -3.270346
v 0.771142 0.539664 -3.270346
v -3.166707 0.085329 1.055794
v -2.497698 0.085329 2.214552
v -2.497698 1.164656 2.214552
v -3.166707 1.164656 1.055794
v 2.497698 0.085329 2.214552
v 3.166707 0.085329 1.055794
v 3.166707 1.164656 1.055794
v 2.497698 1.164656 2.214552
vt 0.406247 0.684968
vt 0.406247 0.312500
vt 0.427086 0.312500
vt 0.427086 0.694181
vt 0.489580 0.685100
vt 0.489580 0.312500
vt 0.510420 0.312500
vt 0.510420 0.694162
vt 0.572914 0.684968
vt 0.572914 0.312500
vt 0.492188 0.312500
vt 0.492188 0.688278
vt 0.390623 0.312500
vt 0.406247 0.312500
vt 0.406247 0.687500
vt 0.390623 0.687500
vt 0.427086 0.312500
vt 0.489580 0.312500
vt 0.489580 0.687500
vt 0.427086 0.687500
vt 0.510420 0.312500
vt 0.572914 0.312500
vt 0.572914 0.687500
vt 0.510420 0.687500
vn -0.920304 0.000000 -0.391205
vn -0.920301 0.000000 -0.391212
vn -0.867648 0.000000 -0.497178
vn -0.848965 0.000000 -0.528450
vn 0.086642 0.000000 0.996240
vn 0.063473 0.000000 0.997984
vn -0.063473 0.000000 0.997984
vn -0.086642 0.000000 0.996240
vn 0.848965 0.000000 -0.528450
vn 0.867649 0.000000 -0.497178
vn 0.920301 0.000000 -0.391212
vn 0.920304 0.000000 -0.391205
vn 0.000000 0.000000 -1.000000
vn 0.000000 0.000000 -1.000000
vn 0.000000 0.000000 -1.000000
vn 0.000000 0.000000 -1.000000
vn -0.866026 0.000000 0.500000
vn -0.866026 0.000000 0.500000
vn -0.866026 0.000000 0.500000
vn -0.866026 0.000000 0.500000
vn 0.866026 0.000000 0.499999
vn 0.866026 0.000000 0.499999
vn 0.866026 0.000000 0.499999
vn 0.866026 0.000000 0.499999
vn 0.000000 -0.952468 -0.304639
vn 0.000000 -0.952468 -0.304639
vn 0.000000 -0.952468 -0.304639
vn 0.000000 -0.952468 -0.304639
vn -0.929575 0.000000 -0.368634
vn -0.929575 0.000000 -0.368634
vn 0.000000 0.952776 -0.303674
vn 0.000000 0.952776 -0.303674
vn 0.000000 0.952776 -0.303674
vn 0.000000 0.952776 -0.303674
vn 0.929575 0.000000 -0.368634
vn 0.929575 0.000000 -0.368634
vn -0.499470 -0.816929 0.288369
vn -0.499470 -0.816929 0.288369
vn -0.499470 -0.816929 0.288369
vn -0.499470 -0.816929 0.288369
vn 0.191062 0.000000 0.981578
vn 0.191062 0.000000 0.981578
vn 0.058252 0.997735 -0.033632
vn 0.058252 0.997735 -0.033632
vn 0.058252 0.997735 -0.033632
vn 0.058252 0.997735 -0.033632
vn -0.754541 0.000000 -0.656253
vn -0.754541 0.000000 -0.656253
vn 0.499470 -0.816929 0.288369
vn 0.499470 -0.816929 0.288369
vn 0.499470 -0.816929 0.288369
vn 0.499470 -0.816929 0.288369
vn 0.754541 0.000000 -0.656253
vn 0.754541 0.000000 -0.656253
vn -0.058252 0.997735 -0.033632
vn -0.058252 0.997735 -0.033632
vn -0.058252 0.997735 -0.033632
vn -0.058252 0.997735 -0.033632
vn -0.191062 0.000000 0.981578
vn -0.191062 0.000000 0.981578
vn 0.000000 1.000000 -0.000000
vn 0.000000 1.000000 -0.000000
vn 0.000000 1.000000 -0.000000
vn 0.000000 1.000000 -0.000000
vn 0.000000 1.000000 0.000000
vn 0.000000 1.000000 0.000000
vn 0.000000 1.000000 0.000000
vn 0.000000 1.000000 0.000000
vn 0.000000 -1.000000 0.000000
vn 0.000000 -1.000000 0.000000
vn 0.000000 -1.000000 0.000000
vn 0.000000 -1.000000 0.000000
vn 0.000000 -1.000000 0.000000
vn 0.000000 -1.000000 0.000000
vn 0.000000 -1.000000 0.000000
vn 0.000000 -1.000000 0.000000
s 1
g Hydra_Body
usemtl samSG
f 78/127/225 75/128/226 80/129/227 81/130/228
s 2
f 82/131/229 79/132/230 84/133/231 85/134/232
s 3
f 86/135/233 83/136/234 76/137/235 77/138/236
s off
f 87/139/237 88/140/238 89/141/239 90/142/240
f 91/143/241 92/144/242 93/145/243 94/146/244
f 95/147/245 96/148/246 97/149/247 98/150/248
f 76/137/249 75/128/250 88/140/251 87/139/252
s 1
f 75/128/226 78/127/225 89/141/253 88/140/254
s off
f 78/127/255 77/138/256 90/142/257 89/141/258
s 3
f 77/138/236 76/137/235 87/139/259 90/142/260
s off
f 80/129/261 79/132/262 92/144/263 91/143/264
s 2
f 79/132/230 82/131/229 93/145/265 92/144/266
s off
f 82/131/267 81/130/268 94/146/269 93/145/270
s 1
f 81/130/228 80/129/227 91/143/271 94/146/272
s off
f 84/133/273 83/136/274 96/148/275 95/147/276
s 3
f 83/136/234 86/135/233 97/149/277 96/148/278
s off
f 86/135/279 85/134/280 98/150/281 97/149/282
s 2
f 85/134/232 84/133/231 95/147/283 98/150/284
s off
f 78/127/285 81/130/286 86/135/287 77/138/288
f 81/130/289 82/131/290 85/134/291 86/135/292
f 79/132/293 80/129/294 83/136/295 84/133/296
f 80/129/297 75/128/298 76/137/299 83/136/300
